<?xml version="1.0" encoding="utf-8"?>
<!-- Generator: Adobe Illustrator 16.0.0, SVG Export Plug-In . SVG Version: 6.00 Build 0)  -->
<!DOCTYPE svg PUBLIC "-//W3C//DTD SVG 1.1//EN" "http://www.w3.org/Graphics/SVG/1.1/DTD/svg11.dtd">
<svg version="1.1" id="Capa_1" xmlns="http://www.w3.org/2000/svg" xmlns:xlink="http://www.w3.org/1999/xlink" x="0px" y="0px"
	 width="650.471px" height="650.472px" viewBox="0 0 650.471 650.472" enable-background="new 0 0 650.471 650.472"
	 xml:space="preserve">
<g>
	<g>
		<g>
			<g>
				<path fill="#FFFFFF" stroke="#000000" stroke-miterlimit="10" d="M525.625,172.695c-69.138,20.375-96.735,84.165-96.735,84.165
					s5.983-1.748,14.777-0.636c8.777,1.111,19.746,6.781,19.746,6.781s65.184-121.75,169.41-57.074
					C632.823,205.931,605.256,149.228,525.625,172.695z"/>
				<path fill="#FFFFFF" stroke="#000000" stroke-miterlimit="10" d="M339.24,326.192h43.834
					c10.485-17.371,22.002-24.756,22.002-24.756s-2.963,10.252-3.173,24.756h49.367c0.918-4.792,1.667-9.802,2.093-15.109
					c0,0,3.834,7.434,10.47,15.109h42.667c-4.881-4.591-11.452-12.129-19.586-24.579c-8.536-13.031-33.985-38.664-84.045-28.758
					C376.502,278.065,350.474,300.839,339.24,326.192z"/>
			</g>
		</g>
		<g>
			<g>
				<path fill="#FFFFFF" stroke="#000000" stroke-miterlimit="10" d="M478.224,125.293c-20.366,69.146-84.166,96.745-84.166,96.745
					s1.756-5.984,0.646-14.777c-1.112-8.778-6.781-19.747-6.781-19.747s121.75-65.184,57.081-169.41
					C445.003,18.104,501.699,45.67,478.224,125.293z"/>
				<path fill="#FFFFFF" stroke="#000000" stroke-miterlimit="10" d="M324.732,311.679v-43.827
					c17.367-10.485,24.768-22.001,24.768-22.001s-10.268,2.963-24.768,3.172v-49.367c4.796-0.918,9.805-1.674,15.112-2.093
					c0,0-7.434-3.834-15.112-10.486v-42.65c4.582,4.88,12.133,11.452,24.575,19.585c13.029,8.537,38.671,33.985,28.766,84.044
					C372.862,274.425,350.088,300.453,324.732,311.679z"/>
			</g>
		</g>
	</g>
	<g>
		<g>
			<g>
				<path fill="#FFFFFF" stroke="#000000" stroke-miterlimit="10" d="M478.224,527.082c-20.366-69.122-84.166-96.729-84.166-96.729
					s1.756,5.983,0.646,14.762c-1.112,8.786-6.781,19.764-6.781,19.764s121.75,65.183,57.081,169.417
					C445.003,634.295,501.699,606.72,478.224,527.082z"/>
				<path fill="#FFFFFF" stroke="#000000" stroke-miterlimit="10" d="M324.732,340.703v43.826
					c17.367,10.495,24.768,22.019,24.768,22.019s-10.268-2.98-24.768-3.173v49.351c4.796,0.935,9.805,1.667,15.112,2.109
					c0,0-7.434,3.825-15.112,10.47v42.666c4.582-4.88,12.133-11.46,24.575-19.593c13.029-8.545,38.671-33.985,28.766-84.053
					C372.862,377.966,350.088,351.93,324.732,340.703z"/>
			</g>
		</g>
		<g>
			<g>
				<path fill="#FFFFFF" stroke="#000000" stroke-miterlimit="10" d="M525.625,479.687c-69.138-20.366-96.735-84.173-96.735-84.173
					s5.983,1.771,14.777,0.661c8.777-1.12,19.746-6.789,19.746-6.789s65.184,121.741,169.41,57.073
					C632.823,446.459,605.256,503.171,525.625,479.687z"/>
				<path fill="#FFFFFF" stroke="#000000" stroke-miterlimit="10" d="M339.24,326.192h43.834
					c10.485,17.379,22.002,24.771,22.002,24.771s-2.963-10.261-3.173-24.771h49.367c0.918,4.799,1.667,9.809,2.093,15.115
					c0,0,3.834-7.449,10.47-15.115h42.667c-4.881,4.59-11.452,12.128-19.586,24.57c-8.536,13.039-33.985,38.68-84.045,28.774
					C376.502,374.318,350.474,351.559,339.24,326.192z"/>
			</g>
		</g>
	</g>
	<g>
		<g>
			<g>
				<path fill="#FFFFFF" stroke="#000000" stroke-miterlimit="10" d="M123.842,479.687c69.134-20.366,96.737-84.173,96.737-84.173
					s-5.992,1.771-14.778,0.661c-8.778-1.12-19.75-6.789-19.75-6.789s-65.18,121.741-169.414,57.073
					C16.636,446.459,44.202,503.171,123.842,479.687z"/>
				<path fill="#FFFFFF" stroke="#000000" stroke-miterlimit="10" d="M310.224,326.192h-43.831
					c-10.489,17.379-22.009,24.771-22.009,24.771s2.967-10.261,3.176-24.771h-49.367c-0.918,4.799-1.667,9.809-2.093,15.115
					c0,0-3.834-7.449-10.478-15.115h-42.658c4.876,4.59,11.447,12.128,19.59,24.57c8.536,13.039,33.98,38.68,84.048,28.774
					C272.961,374.318,298.993,351.559,310.224,326.192z"/>
			</g>
		</g>
		<g>
			<g>
				<path fill="#FFFFFF" stroke="#000000" stroke-miterlimit="10" d="M171.239,527.082c20.372-69.122,84.161-96.729,84.161-96.729
					s-1.755,5.983-0.644,14.762c1.116,8.786,6.789,19.764,6.789,19.764s-121.75,65.183-57.082,169.417
					C204.463,634.295,147.764,606.72,171.239,527.082z"/>
				<path fill="#FFFFFF" stroke="#000000" stroke-miterlimit="10" d="M324.732,340.703v43.826
					c-17.371,10.495-24.768,22.019-24.768,22.019s10.264-2.98,24.768-3.173v49.351c-4.796,0.935-9.805,1.667-15.104,2.109
					c0,0,7.425,3.825,15.104,10.47v42.666c-4.586-4.88-12.128-11.46-24.575-19.593c-13.03-8.545-38.671-33.985-28.766-84.053
					C276.609,377.966,299.371,351.93,324.732,340.703z"/>
			</g>
		</g>
	</g>
	<g>
		<g>
			<g>
				<path fill="#FFFFFF" stroke="#000000" stroke-miterlimit="10" d="M171.239,125.293c20.372,69.146,84.161,96.745,84.161,96.745
					s-1.755-5.984-0.644-14.777c1.116-8.778,6.789-19.747,6.789-19.747s-121.75-65.184-57.082-169.41
					C204.463,18.104,147.764,45.67,171.239,125.293z"/>
				<path fill="#FFFFFF" stroke="#000000" stroke-miterlimit="10" d="M324.732,311.679v-43.827
					c-17.371-10.485-24.768-22.001-24.768-22.001s10.264,2.963,24.768,3.172v-49.367c-4.796-0.918-9.805-1.674-15.104-2.093
					c0,0,7.425-3.834,15.104-10.486v-42.65c-4.586,4.88-12.128,11.452-24.575,19.585c-13.03,8.537-38.671,33.985-28.766,84.044
					C276.609,274.425,299.371,300.453,324.732,311.679z"/>
			</g>
		</g>
		<g>
			<g>
				<path fill="#FFFFFF" stroke="#000000" stroke-miterlimit="10" d="M123.842,172.695c69.134,20.375,96.737,84.165,96.737,84.165
					s-5.992-1.748-14.778-0.636c-8.778,1.111-19.75,6.781-19.75,6.781s-65.18-121.75-169.414-57.074
					C16.636,205.931,44.202,149.228,123.842,172.695z"/>
				<path fill="#FFFFFF" stroke="#000000" stroke-miterlimit="10" d="M310.224,326.192h-43.831
					c-10.489-17.371-22.009-24.756-22.009-24.756s2.967,10.252,3.176,24.756h-49.367c-0.918-4.792-1.667-9.802-2.093-15.109
					c0,0-3.834,7.434-10.478,15.109h-42.658c4.876-4.591,11.447-12.129,19.59-24.579c8.536-13.031,33.98-38.664,84.048-28.758
					C272.961,278.065,298.993,300.839,310.224,326.192z"/>
			</g>
		</g>
	</g>
</g>
</svg>
