<?xml version="1.0" encoding="utf-8"?>
<!-- Generator: Adobe Illustrator 16.0.0, SVG Export Plug-In . SVG Version: 6.00 Build 0)  -->
<!DOCTYPE svg PUBLIC "-//W3C//DTD SVG 1.1//EN" "http://www.w3.org/Graphics/SVG/1.1/DTD/svg11.dtd">
<svg version="1.1" id="Capa_1" xmlns="http://www.w3.org/2000/svg" xmlns:xlink="http://www.w3.org/1999/xlink" x="0px" y="0px"
	 width="650.471px" height="650.472px" viewBox="0 0 650.471 650.472" enable-background="new 0 0 650.471 650.472"
	 xml:space="preserve">
<g>
	<polygon fill="none" stroke="#000000" stroke-miterlimit="10" points="10,96.845 10,174.879 12.583,175.958 92.774,95.765 
		91.696,93.182 13.663,93.182 	"/>
	<polygon fill="none" stroke="#000000" stroke-miterlimit="10" points="188.093,96.845 188.093,174.879 190.676,175.958 
		270.871,95.765 269.791,93.182 191.756,93.182 	"/>
	<polygon fill="none" stroke="#000000" stroke-miterlimit="10" points="360.092,5.388 282.058,5.388 278.396,9.052 278.396,87.084 
		280.979,88.163 361.17,7.972 	"/>
	<polygon fill="none" stroke="#000000" stroke-miterlimit="10" points="10,187.145 10,265.18 12.583,266.261 92.774,186.065 
		91.696,183.485 13.663,183.485 	"/>
	<polygon fill="none" stroke="#000000" stroke-miterlimit="10" points="368.698,187.145 368.698,265.18 371.278,266.261 
		451.475,186.065 450.394,183.485 372.359,183.485 	"/>
	<polygon fill="none" stroke="#000000" stroke-miterlimit="10" points="458.999,187.145 458.999,265.18 461.582,266.261 
		541.774,186.065 540.696,183.485 462.66,183.485 	"/>
	<polygon fill="none" stroke="#000000" stroke-miterlimit="10" points="549.3,187.145 549.3,265.18 551.883,266.261 
		632.076,186.065 630.995,183.485 552.96,183.485 	"/>
	<polygon fill="none" stroke="#000000" stroke-miterlimit="10" points="193.11,186.065 273.302,266.261 275.887,265.18 
		275.887,187.145 272.226,183.485 194.189,183.485 	"/>
	<polygon fill="none" stroke="#000000" stroke-miterlimit="10" points="16.094,90.671 94.132,90.671 97.792,87.01 97.792,8.977 
		95.209,7.898 15.015,88.088 	"/>
	<polygon fill="none" stroke="#000000" stroke-miterlimit="10" points="286.998,90.671 365.037,90.671 368.698,87.01 368.698,8.977 
		366.112,7.898 285.92,88.088 	"/>
	<polygon fill="none" stroke="#000000" stroke-miterlimit="10" points="194.189,90.671 272.226,90.671 275.887,87.01 275.887,8.977 
		273.302,7.898 193.11,88.088 	"/>
	<polygon fill="none" stroke="#000000" stroke-miterlimit="10" points="16.094,180.974 94.132,180.974 97.792,177.313 
		97.792,99.277 95.209,98.197 55.101,138.282 15.015,178.391 	"/>
	<polygon fill="none" stroke="#000000" stroke-miterlimit="10" points="194.189,180.974 272.226,180.974 275.887,177.313 
		275.887,99.277 273.302,98.197 233.193,138.282 193.11,178.391 	"/>
	<polygon fill="none" stroke="#000000" stroke-miterlimit="10" points="181.999,183.485 103.962,183.485 100.301,187.145 
		100.301,265.18 102.884,266.261 183.079,186.065 	"/>
	<polygon fill="none" stroke="#000000" stroke-miterlimit="10" points="360.092,93.182 282.058,93.182 278.396,96.845 
		278.396,174.879 280.979,175.958 361.17,95.765 	"/>
	<polygon fill="none" stroke="#000000" stroke-miterlimit="10" points="16.094,271.277 94.132,271.277 97.792,267.616 
		97.792,189.577 95.209,188.499 55.101,228.585 15.015,268.691 	"/>
	<polygon fill="none" stroke="#000000" stroke-miterlimit="10" points="368.698,96.845 368.698,174.879 371.278,175.958 
		451.475,95.765 450.394,93.182 372.359,93.182 	"/>
	<polygon fill="none" stroke="#000000" stroke-miterlimit="10" points="458.999,96.845 458.999,174.879 461.582,175.958 
		541.774,95.765 540.696,93.182 462.66,93.182 	"/>
	<polygon fill="none" stroke="#000000" stroke-miterlimit="10" points="549.3,96.845 549.3,174.879 551.883,175.958 632.076,95.765 
		630.995,93.182 552.96,93.182 	"/>
	<polygon fill="none" stroke="#000000" stroke-miterlimit="10" points="374.789,90.671 452.83,90.671 456.491,87.01 456.491,8.977 
		453.908,7.898 373.714,88.088 	"/>
	<polygon fill="none" stroke="#000000" stroke-miterlimit="10" points="465.094,90.671 543.13,90.671 546.791,87.01 546.791,8.977 
		544.208,7.898 464.016,88.088 	"/>
	<polygon fill="none" stroke="#000000" stroke-miterlimit="10" points="555.397,90.671 633.432,90.671 637.093,87.01 637.093,8.977 
		634.507,7.898 554.315,88.088 	"/>
	<polygon fill="none" stroke="#000000" stroke-miterlimit="10" points="374.789,180.974 452.83,180.974 456.491,177.313 
		456.491,99.277 453.908,98.197 413.797,138.282 373.714,178.391 	"/>
	<polygon fill="none" stroke="#000000" stroke-miterlimit="10" points="465.094,180.974 543.13,180.974 546.791,177.313 
		546.791,99.277 544.208,98.197 504.098,138.282 464.016,178.391 	"/>
	<polygon fill="none" stroke="#000000" stroke-miterlimit="10" points="555.397,180.974 633.432,180.974 637.093,177.313 
		637.093,99.277 634.507,98.197 594.4,138.282 554.315,178.391 	"/>
</g>
</svg>
