<?xml version="1.0" encoding="utf-8"?>
<!-- Generator: Adobe Illustrator 16.0.0, SVG Export Plug-In . SVG Version: 6.00 Build 0)  -->
<!DOCTYPE svg PUBLIC "-//W3C//DTD SVG 1.1//EN" "http://www.w3.org/Graphics/SVG/1.1/DTD/svg11.dtd">
<svg version="1.1" id="Capa_1" xmlns="http://www.w3.org/2000/svg" xmlns:xlink="http://www.w3.org/1999/xlink" x="0px" y="0px"
	 width="1209.688px" height="742.965px" viewBox="0 0 1209.688 742.965" enable-background="new 0 0 1209.688 742.965"
	 xml:space="preserve">
<polygon fill="none" stroke="#000000" stroke-miterlimit="10" points="201.833,35.285 201.833,197.274 35.032,197.274 
	35.032,537.293 201.833,537.293 201.833,705.697 533.832,705.697 533.832,537.293 700.633,537.293 700.633,205.294 541.851,205.294 
	541.851,35.285 "/>
<polygon fill="none" stroke="#000000" stroke-miterlimit="10" points="214.633,61.132 214.633,210.631 60.694,210.631 
	60.694,524.431 214.633,524.431 214.633,679.852 521.032,679.852 521.032,524.431 674.972,524.431 674.972,218.032 528.433,218.032 
	528.433,61.132 "/>
<polygon fill="none" stroke="#000000" stroke-miterlimit="10" points="184.36,0 184.36,179.042 0,179.042 0,554.851 184.36,554.851 
	184.36,740.982 551.305,740.982 551.305,554.851 735.664,554.851 735.664,187.904 560.168,187.904 560.168,0 "/>
<polygon fill="none" stroke="#000000" stroke-miterlimit="10" points="318.554,270.982 318.554,319.07 269.038,319.07 
	269.038,420.008 318.554,420.008 318.554,470 417.11,470 417.11,420.008 466.626,420.008 466.626,321.451 419.491,321.451 
	419.491,270.982 "/>
<polygon fill="none" stroke="#000000" stroke-miterlimit="10" points="306.583,246.809 306.583,306.579 245.038,306.579 
	245.038,432.037 306.583,432.037 306.583,494.174 429.082,494.174 429.082,432.037 490.626,432.037 490.626,309.538 432.04,309.538 
	432.04,246.809 "/>
<polygon fill="none" stroke="#000000" stroke-miterlimit="10" points="290.019,213.36 290.019,289.294 211.83,289.294 
	211.83,448.682 290.019,448.682 290.019,527.622 445.646,527.622 445.646,448.682 523.834,448.682 523.834,293.054 449.404,293.054 
	449.404,213.36 "/>
</svg>
