<?xml version="1.0" encoding="utf-8"?>
<!-- Generator: Adobe Illustrator 16.0.0, SVG Export Plug-In . SVG Version: 6.00 Build 0)  -->
<!DOCTYPE svg PUBLIC "-//W3C//DTD SVG 1.1//EN" "http://www.w3.org/Graphics/SVG/1.1/DTD/svg11.dtd">
<svg version="1.1" id="Layer_1" xmlns="http://www.w3.org/2000/svg" xmlns:xlink="http://www.w3.org/1999/xlink" x="0px" y="0px"
	 width="800px" height="600px" viewBox="0 0 800 600" enable-background="new 0 0 800 600" xml:space="preserve">
<path fill="none" stroke="#000000" stroke-miterlimit="10" d="M375,192.5c0,22.559-4.038,44.173-11.43,64.162
	c-2.847,7.698-6.189,15.153-9.992,22.329c-6.072,11.46-13.313,22.205-21.565,32.079c-11.056,13.229-23.927,24.889-38.229,34.598
	c-14.302,9.709-30.036,17.469-46.821,22.895C229.02,374.365,209.875,377.5,190,377.5c-30.795,0-59.832-7.524-85.375-20.836
	c-8.515-4.437-16.641-9.517-24.315-15.176c-9.46-6.977-18.233-14.833-26.196-23.448c-5.87-6.35-11.3-13.112-16.242-20.239
	c-3.777-5.447-7.269-11.105-10.455-16.957c-4.518-8.296-8.419-16.975-11.642-25.978c-3.413-9.53-6.065-19.421-7.885-29.601
	C5.992,214.629,5,203.681,5,192.5c0-15.158,1.823-29.889,5.261-43.99c2.623-10.75,6.186-21.131,10.593-31.053
	c4.715-10.612,10.399-20.697,16.941-30.145c4.962-7.166,10.417-13.963,16.315-20.344c6.156-6.662,12.798-12.87,19.867-18.568
	c8.306-6.696,17.204-12.689,26.603-17.89c7.959-4.404,16.277-8.237,24.899-11.446C145.567,11.587,167.307,7.5,190,7.5
	c10.143,0,20.094,0.816,29.793,2.385c11.176,1.809,22.016,4.622,32.427,8.338c7.606,2.716,14.98,5.915,22.088,9.562
	c11.067,5.675,21.486,12.432,31.12,20.132c8.344,6.669,16.096,14.045,23.168,22.037c7.199,8.135,13.691,16.908,19.383,26.224
	c5.8,9.495,10.77,19.552,14.805,30.072C370.675,146.818,375,169.153,375,192.5z"/>
</svg>
