<?xml version="1.0" encoding="utf-8"?>
<!-- Generator: Adobe Illustrator 16.0.0, SVG Export Plug-In . SVG Version: 6.00 Build 0)  -->
<!DOCTYPE svg PUBLIC "-//W3C//DTD SVG 1.1//EN" "http://www.w3.org/Graphics/SVG/1.1/DTD/svg11.dtd">
<svg version="1.1" id="Capa_1" xmlns="http://www.w3.org/2000/svg" xmlns:xlink="http://www.w3.org/1999/xlink" x="0px" y="0px"
	 width="650.471px" height="650.472px" viewBox="0 0 650.471 650.472" enable-background="new 0 0 650.471 650.472"
	 xml:space="preserve">
<g>
	<g>
		<g>
			<path fill="#FFFFFF" stroke="#000000" stroke-miterlimit="10" d="M124.882,147.667c0,0,7.828-2.297,19.327-0.843
				c11.473,1.454,25.827,8.871,25.827,8.871s57.249-106.764,152.892-98.936V32.401c-19.08-3.782-42.673-3.318-71.497,5.173
				C160.991,64.218,124.882,147.667,124.882,147.667z"/>
			<path fill="#FFFFFF" stroke="#000000" stroke-miterlimit="10" d="M211.302,288.469c-19.99,9.071-48.557-13.854-48.557-13.854
				c-4.398,18.057-12.727,34.208-21.392,47.324h79.072C217.792,302.112,211.302,288.469,211.302,288.469z"/>
			<path fill="#FFFFFF" stroke="#000000" stroke-miterlimit="10" d="M10.059,321.939h71.971
				c-13.021-26.232-15.556-54.646-15.556-54.646c-23.009,26.021-46.549,28.434-46.549,28.434
				C15.079,304.43,11.903,313.216,10.059,321.939z"/>
			<path fill="#FFFFFF" stroke="#000000" stroke-miterlimit="10" d="M201.8,259.34c19.922,4.382,37.668-11.884,37.668-11.884
				s-13.812-3.203-38.69-41.235c-11.167-17.046-44.453-50.59-109.939-37.631c-48.151,9.523-95.691,63.78-90.439,109.587
				c0,0,43.584-4.425,63.885-38.812c13.896-23.493,29.451-33.396,29.451-33.396s-18.8,64.581,23.304,110.862
				c0,0,34.866-36.02,39.854-98.23C156.893,218.6,174.724,253.419,201.8,259.34z"/>
		</g>
	</g>
	<g>
		<g>
			<path fill="#FFFFFF" stroke="#000000" stroke-miterlimit="10" d="M148.655,519.98c0,0-2.296-7.818-0.837-19.311
				c1.448-11.473,8.875-25.844,8.875-25.844S49.908,417.578,57.747,321.939H33.389c-3.771,19.068-3.329,42.677,5.167,71.513
				C65.206,483.886,148.655,519.98,148.655,519.98z"/>
			<path fill="#FFFFFF" stroke="#000000" stroke-miterlimit="10" d="M289.457,433.57c9.061,19.996-13.849,48.568-13.849,48.568
				c18.062,4.381,34.208,12.715,47.319,21.365v-79.057C303.106,427.08,289.457,433.57,289.457,433.57z"/>
			<path fill="#FFFFFF" stroke="#000000" stroke-miterlimit="10" d="M322.928,634.814v-71.977
				c-26.228,13.031-54.641,15.561-54.641,15.561c26.022,22.998,28.418,46.543,28.418,46.543
				C305.413,629.789,314.199,632.98,322.928,634.814z"/>
			<path fill="#FFFFFF" stroke="#000000" stroke-miterlimit="10" d="M260.323,443.062c4.393-19.922-11.868-37.652-11.868-37.652
				s-3.213,13.801-41.25,38.686c-17.052,11.156-50.59,44.447-37.632,109.945c9.529,48.145,63.78,95.67,109.598,90.434
				c0,0-4.436-43.584-38.812-63.896c-23.494-13.885-33.402-29.445-33.402-29.445s64.581,18.805,110.862-23.293
				c0,0-36.025-34.871-98.23-39.865C219.588,487.974,254.396,470.148,260.323,443.062z"/>
		</g>
	</g>
	<g>
		<g>
			<path fill="#FFFFFF" stroke="#000000" stroke-miterlimit="10" d="M520.968,496.212c0,0-7.817,2.297-19.322,0.842
				c-11.473-1.453-25.832-8.881-25.832-8.881s-57.248,106.795-152.886,98.947v24.367c19.089,3.783,42.678,3.33,71.502-5.172
				C484.864,579.671,520.968,496.212,520.968,496.212z"/>
			<path fill="#FFFFFF" stroke="#000000" stroke-miterlimit="10" d="M434.558,355.41c19.985-9.049,48.557,13.854,48.557,13.854
				c4.394-18.057,12.727-34.197,21.376-47.324h-79.056C428.069,341.767,434.558,355.41,434.558,355.41z"/>
			<path fill="#FFFFFF" stroke="#000000" stroke-miterlimit="10" d="M635.79,321.939h-71.965
				c13.021,26.232,15.549,54.646,15.549,54.646c23.01-26.021,46.566-28.414,46.566-28.414
				C630.765,339.47,633.947,330.673,635.79,321.939z"/>
			<path fill="#FFFFFF" stroke="#000000" stroke-miterlimit="10" d="M444.061,384.55c-19.933-4.393-37.674,11.873-37.674,11.873
				s13.822,3.203,38.686,41.244c11.178,17.047,44.458,50.59,109.945,37.633c48.146-9.523,95.681-63.77,90.444-109.598
				c0,0-43.584,4.424-63.896,38.811c-13.896,23.494-29.445,33.396-29.445,33.396s18.805-64.568-23.314-110.85
				c0,0-34.851,36.008-39.844,98.219C488.962,425.279,471.136,390.482,444.061,384.55z"/>
		</g>
	</g>
	<g>
		<g>
			<path fill="#FFFFFF" stroke="#000000" stroke-miterlimit="10" d="M497.2,123.878c0,0,2.297,7.849,0.843,19.332
				c-1.454,11.494-8.881,25.843-8.881,25.843s106.784,57.248,98.957,152.886h24.356c3.772-19.068,3.33-42.667-5.183-71.502
				C580.65,159.993,497.2,123.878,497.2,123.878z"/>
			<path fill="#FFFFFF" stroke="#000000" stroke-miterlimit="10" d="M356.408,210.309c-9.061-19.996,13.843-48.557,13.843-48.557
				c-18.057-4.393-34.207-12.737-47.323-21.376v79.045C342.744,216.809,356.408,210.309,356.408,210.309z"/>
			<path fill="#FFFFFF" stroke="#000000" stroke-miterlimit="10" d="M322.928,9.087v71.955c26.232-13.021,54.646-15.55,54.646-15.55
				c-26.021-23.009-28.424-46.555-28.424-46.555C340.448,14.102,331.661,10.91,322.928,9.087z"/>
			<path fill="#FFFFFF" stroke="#000000" stroke-miterlimit="10" d="M385.538,200.817c-4.394,19.922,11.873,37.663,11.873,37.663
				s3.203-13.822,41.234-38.696c17.057-11.157,50.59-44.448,37.632-109.935c-9.523-48.146-63.77-95.68-109.587-90.455
				c0,0,4.436,43.594,38.812,63.906c23.493,13.885,33.396,29.456,33.396,29.456s-64.581-18.805-110.861,23.304
				c0,0,36.02,34.85,98.229,39.844C426.267,155.905,391.47,173.741,385.538,200.817z"/>
		</g>
	</g>
</g>
</svg>
