<?xml version="1.0" encoding="utf-8"?>
<!-- Generator: Adobe Illustrator 16.0.0, SVG Export Plug-In . SVG Version: 6.00 Build 0)  -->
<!DOCTYPE svg PUBLIC "-//W3C//DTD SVG 1.1//EN" "http://www.w3.org/Graphics/SVG/1.1/DTD/svg11.dtd">
<svg version="1.1" id="Capa_1" xmlns="http://www.w3.org/2000/svg" xmlns:xlink="http://www.w3.org/1999/xlink" x="0px" y="0px"
	 width="650.471px" height="650.472px" viewBox="0 0 650.471 650.472" enable-background="new 0 0 650.471 650.472"
	 xml:space="preserve">
<g>
	<polygon fill="none" stroke="#000000" stroke-miterlimit="10" points="0,145.418 0,269.494 4.107,271.21 131.612,143.702 
		129.898,139.595 5.824,139.595 	"/>
	<polygon fill="none" stroke="#000000" stroke-miterlimit="10" points="283.172,145.418 283.172,269.494 287.279,271.21 
		414.792,143.702 413.074,139.595 288.996,139.595 	"/>
	<polygon fill="none" stroke="#000000" stroke-miterlimit="10" points="556.655,0 432.578,0 426.755,5.825 426.755,129.898 
		430.863,131.614 558.369,4.108 	"/>
	<polygon fill="none" stroke="#000000" stroke-miterlimit="10" points="0,288.998 0,413.076 4.107,414.794 131.612,287.28 
		129.898,283.178 5.824,283.178 	"/>
	<polygon fill="none" stroke="#000000" stroke-miterlimit="10" points="570.337,288.998 570.337,413.076 574.44,414.794 
		701.955,287.28 700.237,283.178 576.159,283.178 	"/>
	<polygon fill="none" stroke="#000000" stroke-miterlimit="10" points="713.918,288.998 713.918,413.076 718.025,414.794 
		845.532,287.28 843.819,283.178 719.74,283.178 	"/>
	<polygon fill="none" stroke="#000000" stroke-miterlimit="10" points="857.5,288.998 857.5,413.076 861.607,414.794 
		989.115,287.28 987.396,283.178 863.32,283.178 	"/>
	<polygon fill="none" stroke="#000000" stroke-miterlimit="10" points="291.149,287.28 418.656,414.794 422.767,413.076 
		422.767,288.998 416.946,283.178 292.865,283.178 	"/>
	<polygon fill="none" stroke="#000000" stroke-miterlimit="10" points="9.69,135.602 133.772,135.602 139.592,129.78 139.592,5.707 
		135.485,3.991 7.974,131.495 	"/>
	<polygon fill="none" stroke="#000000" stroke-miterlimit="10" points="440.434,135.602 564.517,135.602 570.337,129.78 
		570.337,5.707 566.226,3.991 438.72,131.495 	"/>
	<polygon fill="none" stroke="#000000" stroke-miterlimit="10" points="292.865,135.602 416.946,135.602 422.767,129.78 
		422.767,5.707 418.656,3.991 291.149,131.495 	"/>
	<polygon fill="none" stroke="#000000" stroke-miterlimit="10" points="9.69,279.186 133.772,279.186 139.592,273.365 
		139.592,149.285 135.485,147.569 71.711,211.305 7.974,275.079 	"/>
	<polygon fill="none" stroke="#000000" stroke-miterlimit="10" points="292.865,279.186 416.946,279.186 422.767,273.365 
		422.767,149.285 418.656,147.569 354.882,211.305 291.149,275.079 	"/>
	<polygon fill="none" stroke="#000000" stroke-miterlimit="10" points="273.483,283.178 149.402,283.178 143.581,288.998 
		143.581,413.076 147.688,414.794 275.2,287.28 	"/>
	<polygon fill="none" stroke="#000000" stroke-miterlimit="10" points="556.655,139.595 432.578,139.595 426.755,145.418 
		426.755,269.494 430.863,271.21 558.369,143.702 	"/>
	<polygon fill="none" stroke="#000000" stroke-miterlimit="10" points="9.69,422.769 133.772,422.769 139.592,416.949 
		139.592,292.865 135.485,291.151 71.711,354.888 7.974,418.658 	"/>
	<polygon fill="none" stroke="#000000" stroke-miterlimit="10" points="570.337,145.418 570.337,269.494 574.44,271.21 
		701.955,143.702 700.237,139.595 576.159,139.595 	"/>
	<polygon fill="none" stroke="#000000" stroke-miterlimit="10" points="713.918,145.418 713.918,269.494 718.025,271.21 
		845.532,143.702 843.819,139.595 719.74,139.595 	"/>
	<polygon fill="none" stroke="#000000" stroke-miterlimit="10" points="857.5,145.418 857.5,269.494 861.607,271.21 
		989.115,143.702 987.396,139.595 863.32,139.595 	"/>
	<polygon fill="none" stroke="#000000" stroke-miterlimit="10" points="580.023,135.602 704.11,135.602 709.931,129.78 
		709.931,5.707 705.823,3.991 578.314,131.495 	"/>
	<polygon fill="none" stroke="#000000" stroke-miterlimit="10" points="723.611,135.602 847.69,135.602 853.511,129.78 
		853.511,5.707 849.403,3.991 721.896,131.495 	"/>
	<polygon fill="none" stroke="#000000" stroke-miterlimit="10" points="867.194,135.602 991.272,135.602 997.093,129.78 
		997.093,5.707 992.982,3.991 865.474,131.495 	"/>
	<polygon fill="none" stroke="#000000" stroke-miterlimit="10" points="580.023,279.186 704.11,279.186 709.931,273.365 
		709.931,149.285 705.823,147.569 642.047,211.305 578.314,275.079 	"/>
	<polygon fill="none" stroke="#000000" stroke-miterlimit="10" points="723.611,279.186 847.69,279.186 853.511,273.365 
		853.511,149.285 849.403,147.569 785.627,211.305 721.896,275.079 	"/>
	<polygon fill="none" stroke="#000000" stroke-miterlimit="10" points="867.194,279.186 991.272,279.186 997.093,273.365 
		997.093,149.285 992.982,147.569 929.209,211.305 865.474,275.079 	"/>
</g>
</svg>
