<?xml version="1.0" encoding="utf-8"?>
<!-- Generator: Adobe Illustrator 16.0.0, SVG Export Plug-In . SVG Version: 6.00 Build 0)  -->
<!DOCTYPE svg PUBLIC "-//W3C//DTD SVG 1.1//EN" "http://www.w3.org/Graphics/SVG/1.1/DTD/svg11.dtd">
<svg version="1.1" id="Layer_1" xmlns="http://www.w3.org/2000/svg" xmlns:xlink="http://www.w3.org/1999/xlink" x="0px" y="0px"
	 width="800px" height="600px" viewBox="0 0 800 600" enable-background="new 0 0 800 600" xml:space="preserve">
<polygon fill="#FFFFFF" stroke="#000000" stroke-miterlimit="10" points="127.146,35.472 82.962,86.899 128.595,132.532 
	128.595,106.456 89.964,87.382 "/>
<polygon fill="#FFFFFF" stroke="#000000" stroke-miterlimit="10" points="43.487,132.532 87.671,81.105 42.038,35.472 
	42.038,61.548 80.669,80.622 "/>
<polygon fill="#FFFFFF" stroke="#000000" stroke-miterlimit="10" points="79.236,2 85.81,88.768 168.633,88.768 144.969,65.104 
	92.602,82.852 "/>
<polygon fill="#FFFFFF" stroke="#000000" stroke-miterlimit="10" points="91.397,166.004 84.824,79.236 2,79.236 25.664,102.9 
	78.031,85.152 "/>
<polygon fill="#FFFFFF" stroke="#000000" stroke-miterlimit="10" points="52.968,28.699 87.294,87.168 145.255,58.793 
	120.588,50.34 90.021,80.701 "/>
<polygon fill="#FFFFFF" stroke="#000000" stroke-miterlimit="10" points="117.665,139.305 83.339,80.836 25.377,109.21 
	50.045,117.664 80.612,87.303 "/>
<polygon fill="#FFFFFF" stroke="#000000" stroke-miterlimit="10" points="5.772,63.17 89.985,85.081 116.835,6.73 86.777,21.444 
	86.59,76.737 "/>
<polygon fill="#FFFFFF" stroke="#000000" stroke-miterlimit="10" points="164.861,104.833 80.648,82.923 53.798,161.274 
	83.856,146.56 84.042,91.267 "/>
</svg>
