<?xml version="1.0" encoding="utf-8"?>
<!-- Generator: Adobe Illustrator 16.0.0, SVG Export Plug-In . SVG Version: 6.00 Build 0)  -->
<!DOCTYPE svg PUBLIC "-//W3C//DTD SVG 1.1//EN" "http://www.w3.org/Graphics/SVG/1.1/DTD/svg11.dtd">
<svg version="1.1" id="Layer_1" xmlns="http://www.w3.org/2000/svg" xmlns:xlink="http://www.w3.org/1999/xlink" x="0px" y="0px"
	 width="800px" height="600px" viewBox="0 0 800 600" enable-background="new 0 0 800 600" xml:space="preserve">
<polygon fill="#FFFFFF" stroke="#000000" stroke-miterlimit="10" points="451.451,122.212 292.769,306.907 456.652,470.792 
	456.652,377.144 317.915,308.642 "/>
<polygon fill="#FFFFFF" stroke="#000000" stroke-miterlimit="10" points="150.996,470.792 309.678,286.097 145.793,122.212 
	145.793,215.86 284.531,284.362 "/>
<polygon fill="#FFFFFF" stroke="#000000" stroke-miterlimit="10" points="279.386,2 302.994,313.617 600.445,313.617 
	515.46,228.631 327.388,292.371 "/>
<polygon fill="#FFFFFF" stroke="#000000" stroke-miterlimit="10" points="323.06,591.004 299.453,279.387 2,279.387 86.986,364.373 
	275.059,300.633 "/>
<polygon fill="#FFFFFF" stroke="#000000" stroke-miterlimit="10" points="185.047,97.886 308.326,307.872 516.487,205.968 
	427.897,175.609 318.119,284.646 "/>
<polygon fill="#FFFFFF" stroke="#000000" stroke-miterlimit="10" points="417.398,495.118 294.12,285.131 85.958,387.036 
	174.549,417.396 284.328,308.356 "/>
<polygon fill="#FFFFFF" stroke="#000000" stroke-miterlimit="10" points="15.547,221.687 317.988,300.376 414.418,18.988 
	306.47,71.832 305.798,270.411 "/>
<polygon fill="#FFFFFF" stroke="#000000" stroke-miterlimit="10" points="586.898,371.317 284.458,292.628 188.029,574.017 
	295.977,521.171 296.648,322.593 "/>
</svg>
