<?xml version="1.0" encoding="utf-8"?>
<!-- Generator: Adobe Illustrator 16.0.0, SVG Export Plug-In . SVG Version: 6.00 Build 0)  -->
<!DOCTYPE svg PUBLIC "-//W3C//DTD SVG 1.1//EN" "http://www.w3.org/Graphics/SVG/1.1/DTD/svg11.dtd">
<svg version="1.1" id="Capa_1" xmlns="http://www.w3.org/2000/svg" xmlns:xlink="http://www.w3.org/1999/xlink" x="0px" y="0px"
	 width="650.471px" height="650.472px" viewBox="0 0 650.471 650.472" enable-background="new 0 0 650.471 650.472"
	 xml:space="preserve">
<g>
	<path fill="none" stroke="#000000" d="M165.413,38.696V38.64v-0.056v-0.056v-0.056v-0.056V38.36v-0.057v-0.056v-0.056v-0.057
		v-0.056v-0.056v-0.056V37.91v-0.057v-0.056l-92.766,0.758L0.5,39.146V0.5h106.047h106.047v30.557l-8.959,17.918l-8.959,17.918
		l-8.959,17.918l-8.959,17.918l-8.959,17.918l-8.959,17.918l-8.959,17.918l-8.959,17.918l-8.959,17.918l-8.959,17.918l-8.959,17.918
		l-8.959,17.918l-8.959,17.918l-8.959,17.918l-8.959,17.918l-8.959,17.918h-2.864h-2.864h-2.864h-2.864h-2.864h-2.865h-2.865h-2.864
		H43.47h-2.865H37.74h-2.864h-2.865h-2.865h-2.865h-2.865l8.875-17.441l8.875-17.44l8.875-17.441l8.875-17.441l8.875-17.441
		l8.875-17.441l8.875-17.44l8.875-17.441l8.875-17.441l8.875-17.44l8.875-17.44l8.875-17.441l8.875-17.44l8.875-17.44l8.875-17.44
		L165.413,38.696z"/>
</g>
</svg>
