<?xml version="1.0" encoding="utf-8"?>
<!-- Generator: Adobe Illustrator 16.0.0, SVG Export Plug-In . SVG Version: 6.00 Build 0)  -->
<!DOCTYPE svg PUBLIC "-//W3C//DTD SVG 1.1//EN" "http://www.w3.org/Graphics/SVG/1.1/DTD/svg11.dtd">
<svg version="1.1" id="Capa_1" xmlns="http://www.w3.org/2000/svg" xmlns:xlink="http://www.w3.org/1999/xlink" x="0px" y="0px"
	 width="650.471px" height="650.472px" viewBox="0 0 650.471 650.472" enable-background="new 0 0 650.471 650.472"
	 xml:space="preserve">
<path fill="#FFFFFF" stroke="#000000" stroke-miterlimit="10" d="M600.745,327.756l24.174-20.272l-24.732-29.447l20.166-24.25
	l-29.598-24.564l15.493-27.46l-33.506-18.882l10.342-29.781l-36.346-12.608l4.862-31.148l-38.026-5.918l-0.784-31.513l-38.461,0.958
	l-6.399-30.864l-37.674,7.805l-11.823-29.229l-35.674,14.403L365.914,8.333l-32.529,20.53l-21.351-23.21l-28.33,26.007
	l-25.147-19.033l-23.236,30.64l-28.146-14.235L189.8,63.328l-30.236-8.994l-10.976,36.851l-31.354-3.452l-4.219,38.212l-31.472,2.2
	l2.687,38.356l-30.577,7.777l9.497,37.249l-28.692,13.113l15.999,34.964l-25.886,18.02l21.989,31.546L24.31,331.515l27.269,27.113
	l-17.897,25.954l31.681,21.815l-12.975,28.74l35.07,15.809l-7.633,30.587l37.332,9.306l-2.044,31.446l38.388,2.494l3.615,31.317
	l38.224-4.403l9.148,30.172l36.82-11.143l14.393,28.046l34.237-17.538l19.177,25.034l30.551-23.367l23.34,21.209l25.888-28.441
	l26.754,16.704l20.388-32.599l29.306,11.663l14.237-35.718l30.932,6.247l7.622-37.681l31.543,0.624l0.764-38.438l31.148-5.005
	l-6.121-37.959l29.75-10.485l-12.793-36.252l27.399-15.629L600.745,327.756z M619.277,307l-20.537,17.217l-15.041-26.332
	l13.892-16.721L619.277,307z M207.192,504.223l-1.292,19.952l-15.023-0.979l-12.809-42.247l31.251-9.472l-1.973,30.428l-1.064,0.548
	L207.192,504.223z M178.679,476.579l7.17-28.721l25.195-2.902l-1.448,22.265L178.679,476.579z M124.06,183.706l-33.544,15.321
	l-2.064-29.481l20.33-5.166l-1.924,17.43L124.06,183.706z M458.266,119.087l3.082-19.746l14.865,2.31l8.973,43.237l-31.975,6.625
	l4.692-30.128l1.106-0.443L458.266,119.087z M542.109,170.201l25.752,14.52l-6.875,19.795l-13.503-11.199l-11.053,13.299
	L542.109,170.201z M539.04,163.888l-15.287-8.62l-8.512,15.061l-0.916-36.844l27.942,9.694L539.04,163.888z M446.765,432.528
	l0.408-20.331l16.809,0.339h0.003l3.905,24.257L446.765,432.528z M468.574,441.017l5.131,31.865l-27.521-10.956l0.505-25.333
	L468.574,441.017z M467.406,408.603l-3.234-20.068l16.595-2.667l8.18,23.161L467.406,408.603z M476.657,362.208l15.854-5.586
	l12.202,21.338l-21.288,3.424L476.657,362.208z M424.288,161.583L424.288,161.583l24.074-4.979l-3.314,21.271l-20.345,0.505
	l-0.418-16.796H424.288z M424.186,157.526l-0.559-22.301l29.956-12.093l-4.563,29.25L424.186,157.526z M448.482,181.79l24.586-0.613
	l-7.07,20.336l0,0v0.005l-20.096-3.135L448.482,181.79z M468.681,205.985l24.303,3.779l-10.594,18.757l-19.216-6.668
	L468.681,205.985z M484.237,233.392l23.23,8.057l-13.766,16.561l-17.728-9.986L484.237,233.392z M502.688,291.646l17.097-14.347
	l28.143,15.866l-25.731,14.671L502.688,291.646z M546.625,333.309l-27.93,9.843l-16.319-19.414l19.401-11.053L546.625,333.309z
	 M523.056,274.555l23.38-19.591l1.13,0.39l0.647-1.886l15.33-12.856l9.671,11.529l-21.707,38.453L523.056,274.555z M519.336,272.462
	l-22.088-12.452l14.254-17.167l30.527,10.591L519.336,272.462z M494.635,263.137l21.427,12.07l-16.502,13.837l-15.659-12.982
	L494.635,263.137z M499.567,294.257h0.003l0,0l18.913,15.699l-18.71,10.67l-13.079-15.569L499.567,294.257z M514.657,344.581
	l-20.325,7.153l-10.083-17.651l14.6-8.322L514.657,344.581z M496.345,355.267l21.062-7.419l20.764,24.731l-29.252,4.703
	L496.345,355.267z M521.442,346.433l28.764-10.148l0,0l0.93,0.771l1.27-1.538l18.866-6.646l5.005,14.181l-33.848,28.382
	L521.442,346.433z M550.611,331.419l-25.127-20.854h0.003l-0.003-0.003l26.502-15.107l1.036,0.589l0.986-1.749l17.372-9.905
	l7.463,13.065L550.611,331.419z M572.875,278.935l-15.038,8.575l18.126-32.102l19.01,22.642l-13.4,16.117L572.875,278.935z
	 M575.313,248.418l-11.278-13.432l-13.251,11.117l12.082-34.828l22.763,18.892L575.313,248.418z M548.007,198.941l11.574,9.611
	l-14.493,41.712l-30.85-10.701l19.495-23.45l0,0l0,0l1.186,0.183l0.302-1.989L548.007,198.941z M510.203,238.158l-23.968-8.31
	l10.966-19.428l31.929,4.977L510.203,238.158z M495.079,206.045l-25.061-3.899l7.316-21.077l32.308-0.802L495.079,206.045z
	 M474.466,177.14l-25.353,0.634l3.434-22.043l31.636-6.549L474.466,177.14z M423.515,130.956l-0.751-30.48l1.01-0.632l-1.069-1.688
	v-0.008l-0.004-0.005l-0.501-19.969l15.051-0.377l16.552,40.934L423.515,130.956z M422.807,182.429l21.613-0.542l-3.099,19.833
	l1.979,0.309l21.361,3.324l-6.582,18.96l1.893,0.664l20.421,7.087l-9.873,17.479l1.747,0.978l18.83,10.612l-12.829,15.443
	l1.537,1.275l16.632,13.807l-15.39,12.904l1.289,1.526l13.895,16.556l-17.441,9.946l0.989,1.737l10.724,18.761l-18.946,6.675
	l0.664,1.894l7.19,20.377l-19.83,3.182l0.318,1.979l3.435,21.328l-20.079-0.398l-0.04,1.999l-0.438,21.594l-19.681-3.973
	l-0.398,1.96l-4.291,21.175l-18.657-7.423l-0.737,1.856l-8.004,20.069l-17.033-10.631l-1.06,1.694l-11.458,18.318l-14.858-13.51
	l-1.348,1.48l-14.55,15.988l-12.207-15.941l-1.591,1.219l-17.165,13.132l-9.165-17.864l-1.79,0.917l-19.232,9.847l-5.835-19.205
	l-1.911,0.584l-20.69,6.257l-2.302-19.933l-1.986,0.232l-21.482,2.471l1.302-20.032l-2.001-0.13l-21.57-1.398l4.862-19.478
	L196,398.922l-20.981-5.228l8.251-18.295l-1.816-0.824l-19.714-8.88l11.401-16.532l-1.647-1.136l-17.801-12.255l14.166-14.228
	l-1.417-1.408l-15.332-15.247l16.482-11.471l-1.138-1.641l-12.362-17.728l18.272-8.352l-0.833-1.812l-8.995-19.652l19.464-4.947
	l-0.493-1.937l-5.332-20.945l20.036-1.395l-0.138-1.993l-1.504-21.554l19.965,2.199l0.224-1.988l2.361-21.482l19.25,5.729
	l0.57-1.915l6.175-20.708l17.914,9.071l0.902-1.787l9.769-19.274l16.019,12.119l1.205-1.598l13.055-17.224l13.59,14.788l1.476-1.352
	l15.925-14.619l10.727,16.972l1.69-1.069l18.279-11.539l7.521,18.606l1.854-0.745l20.049-8.095l4.075,19.652l1.96-0.409
	l21.178-4.385l0.502,20.067L422.807,182.429z M270.73,473.928l18.104-9.272l7.667,14.948l-19.528,14.928l0,0l0,0l-6.243-20.597
	l0.005-0.007H270.73z M298.358,483.214l10.181,19.859l-21.734,23.878l-8.588-28.335L298.358,483.214z M301.594,480.75l16.154-12.36
	l10.215,13.34l-16.545,18.183L301.594,480.75z M330.439,484.96l13.57,17.715l-17.122,27.379l-13.512-26.343L330.439,484.96z
	 M333.179,481.952l13.686-15.044l12.441,11.302l-13.035,20.839L333.179,481.952z M362.315,480.949l16.512,15.005l-11.956,29.992
	l-17.996-23.5L362.315,480.949z M364.466,477.501l10.78-17.242l14.258,8.9l-9.09,22.822L364.466,477.501z M392.954,471.315
	l18.93,11.826l-6.402,31.636l-21.916-19.913L392.954,471.315z M394.458,467.539l7.529-18.89l15.619,6.213l-4.879,24.085
	L394.458,467.539z M421.382,456.374l20.737,8.246l-0.642,32.283l-25.123-15.688L421.382,456.374z M422.186,452.381l4.039-19.927
	l16.476,3.332v0.003h0.003l-0.495,24.562L422.186,452.381z M265.928,471.896l-21.877,11.205l-2.469-21.388l19.471-5.892
	L265.928,471.896z M237.224,458.851l-23.531,7.127l1.394-21.487l20.217-2.325L237.224,458.851z M192.27,158.644l-2.255-32.209
	l26.429,13.372l-2.781,25.192L192.27,158.644z M213.219,169.043l-2.223,20.21l-16.715-1.846l-1.71-24.502L213.219,169.043z
	 M191.945,211.302l-16.773,1.172l-6.064-23.813l21.414,2.361L191.945,211.302z M177.141,236.397l-16.293,4.141l-10.224-22.345
	l21.489-1.498L177.141,236.397z M158.034,364.022l-22.409-10.103l15.199-15.264l16.758,11.537L158.034,364.022z M159.439,369.04
	l18.546,8.359l-6.916,15.313l-23.864-5.945L159.439,369.04z M144.892,304.349l-18.315,12.75l-26.605-18.317l26.942-12.314
	L144.892,304.349z M104.863,258.911l28.712-7.301l14.493,20.793l-20.293,9.282L104.863,258.911z M126.585,321.964l20.886,14.387
	l-15.742,15.808l-29.455-13.277L126.585,321.964z M150.344,333.464l-20.249-13.944l17.68-12.305l14.425,14.344L150.344,333.464z
	 M148.234,302.026h-0.005L130.8,284.694h0.005v-0.005l19.586-8.945h0.008l0,0l11.629,16.68l-13.791,9.603H148.234z M137.712,250.562
	l0.007-0.005h-0.007l20.888-5.312l8.457,18.493l-15.285,6.973L137.712,250.562z M156.908,241.547l-21.633,5.501l-18.47-26.492
	l29.557-2.065L156.908,241.547z M131.127,248.104l-29.559,7.521l-0.852-0.847l-1.412,1.418H99.3h-0.005l-19.376,4.938l-3.716-14.579
	l36.266-25.23L131.127,248.104z M100.733,260.438l23.152,23.018l-27.752,12.677l-0.985-0.678l-1.136,1.646h-0.003v0.007
	l-18.192,8.308l-6.25-13.685L100.733,260.438z M96.173,301.018l26.892,18.521l-25.034,17.423l-1.093-0.492l-0.825,1.823
	l-16.411,11.421l-8.605-12.337L96.173,301.018z M98.941,341.764l29.771,13.42l-21.522,21.61l-1.157-0.285l-0.485,1.936h-0.003v0.01
	l-14.106,14.154l-10.67-10.607L98.941,341.764z M132.603,356.935l23.129,10.431l-12.667,18.369l-31.355-7.808L132.603,356.935z
	 M144.781,390.285l24.619,6.137l-9.181,20.322l-32.246-2.083L144.781,390.285z M173.341,397.398l19.749,4.922l-4.072,16.3
	l-24.534-1.598L173.341,397.398z M333.786,127.242l-11.924-18.86l19.51-25.728l11.095,27.445L333.786,127.242z M354.069,114.059
	l8.073,19.956l-17.203,10.863l-8.977-14.201L354.069,114.059z M330.791,129.986l-14.986,13.759l-11.37-12.373l14.845-19.583h0.005
	l0,0L330.791,129.986z M301.682,128.379l-15.099-16.426l14.596-28.793l15.82,25.011L301.682,128.379z M299.233,131.622
	l-12.291,16.198l-13.405-10.134l11.11-21.924L299.233,131.622z M270.298,135.229l-17.794-13.465l9.212-30.947l20.044,21.803
	L270.298,135.229z M268.458,138.854l-9.192,18.14l-14.995-7.588v-0.003l0,0l7.009-23.546L268.458,138.854z M240.641,147.563
	l-19.915-10.069l3.542-32.09l23.609,17.879L240.641,147.563z M239.482,151.467l-5.8,19.485l-16.118-4.792l2.693-24.424h0.003l0,0
	L239.482,151.467z M367.104,135.612l20.789-13.125l4.371,21.087l-18.864,7.613L367.104,135.612z M400.271,162.483l-3.404-16.454l0,0
	l0,0l22.796-9.201l0.538,21.524L400.271,162.483z M396.043,142.055l-4.537-21.848l27.312-17.238l0.74,29.585L396.043,142.055z
	 M390.636,116.03l-6.19-29.856l0.877-0.807l-1.354-1.478v-0.003l0,0l-4.059-19.566l14.738-3.052l23.606,37.33L390.636,116.03z
	 M381.012,89.327l6.011,28.983l-21.447,13.532l-8.362-20.674L381.012,89.327z M355.619,107.204l-11.432-28.271l0.725-0.953
	l-1.598-1.207l-7.495-18.525l13.961-5.636l29.89,32.51L355.619,107.204z M319.579,104.773l-16.298-25.774l0.546-1.071l-1.792-0.91
	l-10.682-16.889l12.728-8.034l35.225,26.663L319.579,104.773z M283.69,108.807L263.047,86.35l0.337-1.146l-1.913-0.562
	l-13.533-14.723l11.082-10.175l39.424,19.951L283.69,108.807z M249.102,119.178l-24.327-18.404l0,0l-0.005-0.005l0.129-1.184
	l-1.988-0.219l-15.947-12.072l9.096-11.985L258.41,87.9L249.102,119.178z M216.914,135.561l-27.223-13.772v-0.005l0,0l-0.083-1.186
	l-1.994,0.135l-17.846-9.023l6.795-13.42l43.926,4.837L216.914,135.561z M188.169,157.418l-29.249-8.696l-0.294-1.154l-1.933,0.493
	l-19.174-5.704l4.297-14.407l44.079-3.089L188.169,157.418z M188.468,161.682l1.77,25.283l-22.186-2.441l-7.978-31.284
	L188.468,161.682z M171.114,212.758l-22.262,1.549l-13.436-29.353l29.439,3.243L171.114,212.758z M144.58,214.61l-30.436,2.132
	l-0.683-0.986l-1.646,1.141l-19.953,1.396l-1.051-15.004l40.185-18.359L144.58,214.61z M105.41,221.358l-30.263,21.061
	l-7.296-28.634l19.076-8.723l1.226,17.499L105.41,221.358z M77.032,265.995l16.765-4.269l-26.01,26.125l-12.305-26.87l17.216-11.982
	L77.032,265.995z M73.845,310.719l15.737-7.19l-20.928,30.345l-16.906-24.25l14.799-14.855L73.845,310.719z M68.675,340.891
	l10.024,14.396l14.208-9.887l-15.172,33.592l-20.966-20.846L68.675,340.891z M79.011,385.901l12.44,12.367l12.207-12.255
	l-8.929,35.755l-24.352-16.765L79.011,385.901z M108.946,381.351l31.685,7.897l-17.305,25.106l-1.197-0.076l-0.134,1.996
	l-11.345,16.452l-12.394-8.528L108.946,381.351z M122.724,466.844l16,7.22l7.11-15.758l4.228,36.604l-28.695-7.15L122.724,466.844z
	 M145.904,448.429L145.904,448.429L145.904,448.429l-1.19,0.143l0.232,1.983l-0.003,0.003l0.003,0.01l-8.22,18.199L123,462.583
	l2.863-44.057l32.591,2.112L145.904,448.429z M162.72,420.917l25.314,1.641l-5.403,21.641l-32.093,3.699L162.72,420.917z
	 M186.88,443.713l5.213-20.89l20.306,1.322l-1.094,16.755L186.88,443.713z M213.412,470.242l24.278-7.353l2.557,22.161
	l-28.752,14.726L213.412,470.242z M240.733,489.292l3.492,30.294l0,0l0,0l-0.95,0.728l1.217,1.584v0.007l0,0l2.285,19.847
	l-14.953,1.721l-20.15-39.288L240.733,489.292z M244.535,487.342l22.575-11.561l6.473,21.348l-25.655,19.62L244.535,487.342z
	 M274.825,501.22l8.847,29.176l0,0v0.003l-0.807,0.884l1.478,1.342l5.804,19.129l-14.397,4.357h-0.01h-0.005l-26.849-35.057
	L274.825,501.22z M310.488,506.873h0.008l0,0l13.918,27.133l-0.634,1.004l1.688,1.056l0.003,0.007h0.005l9.126,17.787l-13.396,6.858
	l0,0h-0.005l-32.679-29.7L310.488,506.873z M346.603,506.07h0.003l0,0l18.545,24.207l-0.448,1.105l1.856,0.74l12.158,15.875
	l-11.952,9.136L329.3,533.74L346.603,506.07z M381.989,498.83l22.576,20.518l-0.232,1.172l1.946,0.389l0,0l0.01,0.003l14.795,13.447
	l-10.129,11.126l-41.048-16.337L381.989,498.83z M415.511,485.406L415.511,485.406l25.874,16.15l-0.023,1.192l1.999,0.04
	l16.964,10.59l-7.977,12.757l-43.307-8.748L415.511,485.406z M446.094,466.197l28.346,11.288l0.192,1.179l1.976-0.318l18.588,7.393
	l-5.576,13.975l-44.173-0.883L446.094,466.197z M472.759,441.854l29.909,6.044l0.392,1.129l1.894-0.664l19.607,3.959l-2.989,14.742
	l-43.618,7.011L472.759,441.854z M472.081,437.642l-4.031-25.027l22.323,0.445l10.74,30.447L472.081,437.642z M484.781,385.216
	l22.045-3.547l16.011,28.037l-29.607-0.588L484.781,385.216z M511.044,380.993l30.115-4.846l0.776,0.92l1.535-1.282l0,0l0,0
	l19.746-3.185l2.388,14.854l-38.374,21.886L511.044,380.993z M549.448,370.763l28.252-23.679l9.834,27.86l-18.21,10.392
	l-2.796-17.319L549.448,370.763z M573.715,323.771l-16.319,5.745l23.569-28.352l14.652,25.668l-16.061,13.471L573.715,323.771z
	 M614.706,254.306l-17.13,20.617l-19.514-23.232l10.687-18.933L614.706,254.306z M600.798,203.285l-13.178,23.343L564.27,207.25
	l7.134-20.531h0.01l0,0L600.798,203.285z M577.986,155.565l-8.79,25.314l-26.436-14.896l3.351-21.474L577.986,155.565z
	 M513.681,107.488L513.681,107.488l33.35,5.188l-4.135,26.479l-28.677-9.938v-0.003l-0.542-21.725H513.681z M514.298,180.151
	L514.298,180.151L514.298,180.151l1.189-0.037l-0.047-1.991l9.83-17.411l13.108,7.388v0.003h0.004l-6.809,43.624l-32.268-5.024
	L514.298,180.151z M511.389,176.225l-32.643,0.807l10.007-28.798l0,0v-0.005l1.162-0.236l-0.398-1.959l6.553-18.882l14.224,4.934
	L511.389,176.225z M510.18,127.808l-16.575-5.74l-5.679,16.328l-7.485-36.086l29.222,4.553L510.18,127.808z M508.892,76.004
	l0.671,26.794l-29.996-4.668l-4.41-21.285L508.892,76.004z M475.343,97.473l-17.329-2.701l-2.677,17.086l-13.812-34.17l29.567-0.739
	L475.343,97.473z M464.822,46.729l5.443,26.24l-30.341,0.755l-8.146-20.146L464.822,46.729z M435.643,73.831l-17.542,0.44
	l0.436,17.279l-19.704-31.146l28.96-5.999L435.643,73.831z M416.215,25.791l10.056,24.838l-29.72,6.164l-11.613-18.377
	L416.215,25.791z M392.364,57.659l-17.184,3.555l3.511,16.929l-24.954-27.131l27.421-11.072L392.364,57.659z M364.659,13.851
	l14.326,22.658l-28.139,11.353l-14.709-15.996L364.659,13.851z M346.885,49.464l-16.273,6.571l6.477,16.027L307.69,49.818
	l25.001-15.786L346.885,49.464z M311.795,11.301l18.146,19.737v0.003l0,0l-25.658,16.195l-17.337-13.123L311.795,11.301z
	 M283.949,36.861l16.723,12.66l-14.842,9.365l9.241,14.614l-32.898-16.644L283.949,36.861z M259.33,18.229l21.381,16.18
	l-22.349,20.516l-19.407-9.813L259.33,18.229z M236.502,48.349l18.708,9.461l-12.924,11.873l11.705,12.734l-35.344-10.515
	L236.502,48.349z M208.947,34.404l23.92,12.106l-18.324,24.174l-20.848-6.188L208.947,34.404z M191.862,68.107l20.101,5.983
	l-10.599,13.983l13.792,10.435l-36.661-4.032L191.862,68.107z M162.253,59.311l25.703,7.646l-13.708,27.05l-21.62-2.378
	L162.253,59.311z M151.471,95.527l20.85,2.295l-7.932,15.644l15.441,7.816l-36.794,2.571L151.471,95.527z M120.767,92.143
	l26.66,2.938l-8.655,29.069l-21.703,1.511L120.767,92.143z M116.631,129.704l20.922-1.463l-5.001,16.806l16.585,4.938l-35.745,9.095
	L116.631,129.704z M155.74,152.433l8.063,31.62l-30.331-3.336v-0.008l0,0l-0.498-1.074l-1.816,0.825l-19.883-2.185l1.646-14.952
	L155.74,152.433z M112.566,129.986l-3.318,30.145l-21.075,5.36l-2.361-33.637L112.566,129.986z M58.519,177.16l25.994-6.609
	l2.114,30.25l-19.776,9.04L58.519,177.16z M39.757,226.615l24.4-11.139l0,0l0,0l7.484,29.385l-17.847,12.422L39.757,226.615z
	 M30.137,278.618l22.012-15.314l12.617,27.574l-15.338,15.411L30.137,278.618z M29.971,331.499l18.914-18.996l17.348,24.885
	l-12.341,17.894L29.971,331.499z M39.243,383.563l15.215-22.072l21.522,21.395l-8.945,19.813L39.243,383.563z M57.677,433.132
	l11.031-24.423l24.994,17.206l-5.266,21.093L57.677,433.132z M117.416,486.777l-32.742-8.152l6.489-26.008l27.666,12.471
	L117.416,486.777z M92.144,448.675l5.08-20.335l14.45,9.95l9.817-14.237l-2.39,36.776L92.144,448.675z M119.362,518.56l1.744-26.738
	l29.441,7.333l2.494,21.587L119.362,518.56z M149.152,452.083l32.452-3.733l-7.386,29.578l-1.144,0.349l0.582,1.916l-4.841,19.388
	l-14.605-3.633L149.152,452.083z M157.101,521.014l-2.403-20.83l17.034,4.251l4.191-16.787l10.69,35.272L157.101,521.014z
	 M160.636,551.667l-3.072-26.622l30.29,1.967l6.304,20.793L160.636,551.667z M192.115,527.285l17.521,1.139l1.116-17.26
	l16.829,32.796l-29.383,3.377L192.115,527.285z M207.157,576.88l-7.774-25.651l30.15-3.471l9.923,19.339L207.157,576.88z
	 M233.775,547.27l17.439-2.006l-1.978-17.17l22.406,29.259l-28.299,8.568L233.775,547.27z M257.434,593.386l-12.233-23.846h0.003
	h-0.003l29.041-8.794l13.223,17.263L257.434,593.386z M278.342,559.505l16.796-5.085l-5.013-16.546l27.276,24.792l-26.314,13.483
	L278.342,559.505z M309.854,600.656l-16.295-21.277l27.008-13.836l16.088,14.623L309.854,600.656z M324.371,563.589l15.619-7.997
	l-7.891-15.39l31.271,19.535l-23.479,17.953L324.371,563.589z M362.74,598.46l-19.84-18.033l24.098-18.435l18.448,11.517
	L362.74,598.46z M388.179,570.504l-17.788-11.105l13.938-10.661l-10.521-13.732l34.27,13.643L388.179,570.504z M414.368,586.86
	l-22.742-14.197l20.424-22.437l20.202,8.037L414.368,586.86z M434.41,554.812l-19.48-7.748l11.812-12.979l-12.812-11.623
	l36.149,7.299L434.41,554.812z M463.108,566.24l-24.918-9.92l16.084-25.715l0,0l0.004-0.003l21.317,4.311l0,0h0.003L463.108,566.24z
	 M477.096,531.13l-20.557-4.146l9.302-14.878l-14.676-9.159l36.87,0.73L477.096,531.13z M507.374,537.253l-26.286-5.31v-0.011
	l11.229-28.169l21.749,0.433L507.374,537.253z M514.866,500.217l-20.969-0.418l6.492-16.3l-16.074-6.393l36.409-5.858
	L514.866,500.217z M545.748,500.835l-26.813-0.538l6.011-29.727l0,0l21.474-3.45L545.748,500.835z M546.506,463.055l-20.71,3.328
	l3.474-17.19l-16.957-3.427l34.777-12.262L546.506,463.055z M547.184,429.234l-41.683,14.695l-10.866-30.782l30.514,0.604
	l0.598,1.042l1.733-0.996l19.996,0.398L547.184,429.234z M534.258,409.935l32.028-18.266l4.702,29.176l-19.78,6.974l0.353-17.535
	L534.258,409.935z M576.993,458.147l-26.473,4.264l0.604-30.321l20.508-7.236L576.993,458.147z M600.115,410.583l-25.293,8.911
	l-4.816-29.934l18.884-10.779l0,0l0,0L600.115,410.583z M591.074,372.935l-10.103-28.601l16.671-13.968l16.722,29.278
	L591.074,372.935z"/>
</svg>
