<?xml version="1.0" encoding="utf-8"?>
<!-- Generator: Adobe Illustrator 16.0.0, SVG Export Plug-In . SVG Version: 6.00 Build 0)  -->
<!DOCTYPE svg PUBLIC "-//W3C//DTD SVG 1.1//EN" "http://www.w3.org/Graphics/SVG/1.1/DTD/svg11.dtd">
<svg version="1.1" id="Capa_1" xmlns="http://www.w3.org/2000/svg" xmlns:xlink="http://www.w3.org/1999/xlink" x="0px" y="0px"
	 width="650.471px" height="650.472px" viewBox="0 0 650.471 650.472" enable-background="new 0 0 650.471 650.472"
	 xml:space="preserve">
<g>
	<path fill="none" stroke="#000000" stroke-miterlimit="10" d="M0,209.849l73.245-102.229L146.49,5.392h25.388h25.388v97.285v97.286
		h21.569h21.569v18.873v18.873h-21.569h-21.569v42.464v42.464h-21.793H153.68v-42.464v-42.464H76.84H0v-13.93V209.849z
		 M153.68,199.963l0.898-73.469l0.898-73.47h-0.449h-0.449l-52.8,73.021l-52.8,73.021v0.449v0.449h52.351H153.68z"/>
	<path fill="none" stroke="#000000" stroke-miterlimit="10" d="M286.686,163.565C286.686,72.346,314.096,0,398.574,0
		c84.929,0,112.34,72.346,112.34,163.565c0,91.669-27.411,164.465-112.34,164.465C314.096,328.031,286.686,255.234,286.686,163.565z
		 M465.528,163.565c0-68.751-14.828-122.674-66.953-122.674c-51.676,0-66.504,53.922-66.504,122.674
		c0,69.201,14.828,123.573,66.504,123.573C450.699,287.139,465.528,232.767,465.528,163.565z"/>
	<path fill="none" stroke="#000000" stroke-miterlimit="10" d="M567.535,163.565C567.535,72.346,594.946,0,679.425,0
		c84.928,0,112.34,72.346,112.34,163.565c0,91.669-27.411,164.465-112.34,164.465C594.946,328.031,567.535,255.234,567.535,163.565z
		 M746.38,163.565c0-68.751-14.83-122.674-66.955-122.674c-51.677,0-66.504,53.922-66.504,122.674
		c0,69.201,14.827,123.573,66.504,123.573C731.55,287.139,746.38,232.767,746.38,163.565z"/>
</g>
</svg>
