<?xml version="1.0" encoding="utf-8"?>
<!-- Generator: Adobe Illustrator 16.0.0, SVG Export Plug-In . SVG Version: 6.00 Build 0)  -->
<!DOCTYPE svg PUBLIC "-//W3C//DTD SVG 1.1//EN" "http://www.w3.org/Graphics/SVG/1.1/DTD/svg11.dtd">
<svg version="1.1" id="Capa_1" xmlns="http://www.w3.org/2000/svg" xmlns:xlink="http://www.w3.org/1999/xlink" x="0px" y="0px"
	 width="650.471px" height="650.472px" viewBox="0 0 650.471 650.472" enable-background="new 0 0 650.471 650.472"
	 xml:space="preserve">
<g>
	<g>
		<g>
			<path fill="#FFFFFF" stroke="#000000" stroke-miterlimit="10" d="M208.3,207.871c51.552-12.531,88.828-54.82,88.828-54.82
				c-25.731-42.824-96.749-49.18-96.749-49.18c28.147-24.881,30.743-50.299,30.743-50.299c32.22-17.988,65.692-15.572,93.796-1.252
				v208.533c-21.525,10.293-43.14,11.68-60.949,9.936l-38.485-22.285C225.17,228.992,208.3,207.871,208.3,207.871z"/>
			<path fill="#FFFFFF" stroke="#000000" stroke-miterlimit="10" d="M91.055,170.906c-0.984-12.082-0.357-25.551,2.596-40.723
				c10.382-51.998,69.004-103.371,118.498-97.732c0,0-4.833,47.121-41.931,69.049c-25.418,15.035-36.158,31.816-36.158,31.816
				s69.854-20.271,119.84,25.24c0,0-38.888,37.59-106.102,43.049c0,0,9.531,4.922,19.869,13.514L91.055,170.906z"/>
		</g>
	</g>
	<g>
		<g>
			<path fill="#FFFFFF" stroke="#000000" stroke-miterlimit="10" d="M351.499,155.871c36.717,38.439,91.938,49.582,91.938,49.582
				c24.255-43.766-5.817-108.428-5.817-108.428c35.621,11.947,58.98,1.477,58.98,1.477c31.683,18.975,46.36,49.135,47.972,80.639
				l-180.61,104.268c-19.623-13.514-31.66-31.549-39.044-47.793v-44.525C341.655,181.109,351.499,155.871,351.499,155.871z"/>
			<path fill="#FFFFFF" stroke="#000000" stroke-miterlimit="10" d="M324.918,35.896c10.023-6.846,21.927-13.111,36.605-18.078
				c50.231-17.096,123.979,8.01,143.848,53.654c0,0-43.139,19.467-80.729-1.746c-25.687-14.498-45.645-15.348-45.645-15.348
				s52.446,50.254,38.037,116.35c0,0-51.999-14.857-90.327-70.438c0,0,0.536,10.83-1.79,24.031V35.896z"/>
		</g>
	</g>
	<g>
		<g>
			<path fill="#FFFFFF" stroke="#000000" stroke-miterlimit="10" d="M468.14,253.917c-14.946,50.971,3.043,104.4,3.043,104.4
				c50.03-0.895,91.021-59.248,91.021-59.248c7.428,36.83,28.192,51.82,28.192,51.82c-0.627,36.918-19.422,64.709-45.824,81.803
				l-180.61-104.268c1.88-23.717,11.456-43.139,21.838-57.637l38.574-22.285C441.379,257.99,468.14,253.917,468.14,253.917z"/>
			<path fill="#FFFFFF" stroke="#000000" stroke-miterlimit="10" d="M558.803,170.906c10.919,5.191,22.285,12.486,33.92,22.645
				c39.917,34.904,55.132,111.383,25.418,151.434c0,0-38.395-27.701-38.753-70.84c-0.358-29.49-9.576-47.211-9.576-47.211
				s-17.273,70.615-81.714,91.201c0,0-13.156-52.537,15.842-113.441c0,0-9.129,5.771-21.748,10.426L558.803,170.906z"/>
		</g>
	</g>
	<g>
		<g>
			<path fill="#FFFFFF" stroke="#000000" stroke-miterlimit="10" d="M441.558,403.964c-51.552,12.574-88.896,54.818-88.896,54.818
				c25.799,42.914,96.771,49.18,96.771,49.18c-28.103,24.881-30.698,50.299-30.698,50.299c-32.31,17.99-65.805,15.572-93.817,1.297
				V350.98c21.479-10.203,43.161-11.635,60.882-9.936l38.574,22.287C424.733,382.841,441.558,403.964,441.558,403.964z"/>
			<path fill="#FFFFFF" stroke="#000000" stroke-miterlimit="10" d="M558.803,440.927c0.895,12.082,0.269,25.553-2.685,40.723
				c-10.293,51.998-68.915,103.371-118.408,97.732c0,0,4.743-47.076,41.975-69.004c25.329-15.035,36.068-31.861,36.068-31.861
				s-69.81,20.316-119.84-25.238c0,0,38.933-37.59,106.146-43.006c0,0-9.576-4.922-19.868-13.559L558.803,440.927z"/>
		</g>
	</g>
	<g>
		<g>
			<path fill="#FFFFFF" stroke="#000000" stroke-miterlimit="10" d="M298.336,455.962c-36.694-38.439-91.916-49.537-91.916-49.537
				c-24.254,43.721,5.772,108.383,5.772,108.383c-35.576-11.947-58.936-1.477-58.936-1.477
				c-31.683-18.928-46.36-49.135-47.972-80.639l180.655-104.268c19.601,13.516,31.639,31.594,38.978,47.793v44.527
				C308.181,430.724,298.336,455.962,298.336,455.962z"/>
			<path fill="#FFFFFF" stroke="#000000" stroke-miterlimit="10" d="M324.918,575.982c-10.024,6.848-21.973,13.066-36.605,18.035
				c-50.21,17.094-124.002-8.012-143.826-53.656c0,0,43.229-19.422,80.773,1.746c25.687,14.543,45.556,15.35,45.556,15.35
				s-52.492-50.256-38.083-116.35c0,0,52.089,14.945,90.396,70.436c0,0-0.537-10.74,1.79-24.031V575.982z"/>
		</g>
	</g>
	<g>
		<g>
			<path fill="#FFFFFF" stroke="#000000" stroke-miterlimit="10" d="M181.718,357.916c14.946-50.969-3.043-104.311-3.043-104.311
				c-50.03,0.805-91.021,59.158-91.021,59.158c-7.519-36.783-28.192-51.73-28.192-51.73c0.581-36.963,19.421-64.799,45.823-81.893
				l180.655,104.268c-1.924,23.717-11.501,43.184-21.972,57.637l-38.485,22.287C208.389,353.843,181.718,357.916,181.718,357.916z"
				/>
			<path fill="#FFFFFF" stroke="#000000" stroke-miterlimit="10" d="M91.055,440.927c-10.919-5.191-22.33-12.441-33.92-22.645
				C17.173,383.378,2.003,306.902,31.717,266.851c0,0,38.396,27.699,38.843,70.883c0.269,29.49,9.487,47.166,9.487,47.166
				s17.273-70.615,81.713-91.199c0,0,13.156,52.535-15.752,113.484c0,0,9.039-5.816,21.659-10.471L91.055,440.927z"/>
		</g>
	</g>
</g>
</svg>
