<?xml version="1.0" encoding="utf-8"?>
<!-- Generator: Adobe Illustrator 16.0.0, SVG Export Plug-In . SVG Version: 6.00 Build 0)  -->
<!DOCTYPE svg PUBLIC "-//W3C//DTD SVG 1.1//EN" "http://www.w3.org/Graphics/SVG/1.1/DTD/svg11.dtd">
<svg version="1.1" id="Capa_1" xmlns="http://www.w3.org/2000/svg" xmlns:xlink="http://www.w3.org/1999/xlink" x="0px" y="0px"
	 width="650.471px" height="650.472px" viewBox="0 0 650.471 650.472" enable-background="new 0 0 650.471 650.472"
	 xml:space="preserve">
<g>
	<g>
		<g>
			<g>
				<path fill="#FFFFFF" stroke="#000000" stroke-miterlimit="10" d="M112.699,394.595l21.756-7.066
					c10.404-15.639,30.834-42.302,59.772-61.931h-62.563c-35.163,31.866-50.295,66.796-50.295,66.796s7.824-2.295,19.303-0.842
					C104.59,392.046,108.803,393.248,112.699,394.595z"/>
				<path fill="#FFFFFF" stroke="#000000" stroke-miterlimit="10" d="M61.54,411.234c-4.591,0.463-9.267,1.084-14.206,2.064
					c-11.037,2.189-21.999,6.803-32.34,13.037L61.54,411.234z"/>
			</g>
		</g>
		<g>
			<g>
				<path fill="#FFFFFF" stroke="#000000" stroke-miterlimit="10" d="M112.699,394.595l21.756-7.066
					c17.607,6.519,49.811,16.092,84.762,14.943l-50.632,36.795c-47.167-5.119-79.939-24.484-79.939-24.484
					s7.688-2.728,16.123-10.668C107.623,401.419,110.34,397.964,112.699,394.595z"/>
				<path fill="#FFFFFF" stroke="#000000" stroke-miterlimit="10" d="M61.54,411.234c-3.98,2.274-8.15,4.527-12.721,6.635
					c-10.204,4.717-21.788,7.434-33.825,8.467L61.54,411.234z"/>
			</g>
		</g>
	</g>
	<g>
		<g>
			<g>
				<path fill="#FFFFFF" stroke="#000000" stroke-miterlimit="10" d="M112.699,256.61l21.756,7.087
					c17.607-6.529,49.811-16.112,84.762-14.975l-50.632-36.773c-47.167,5.118-79.939,24.474-79.939,24.474
					s7.688,2.749,16.123,10.678C107.623,249.797,110.34,253.241,112.699,256.61z"/>
				<path fill="#FFFFFF" stroke="#000000" stroke-miterlimit="10" d="M61.54,239.982c-3.98-2.296-8.15-4.528-12.721-6.645
					c-10.204-4.718-21.788-7.424-33.825-8.467L61.54,239.982z"/>
			</g>
		</g>
		<g>
			<g>
				<path fill="#FFFFFF" stroke="#000000" stroke-miterlimit="10" d="M112.699,256.61l21.756,7.087
					c10.404,15.627,30.834,42.271,59.772,61.9h-62.563c-35.173-31.866-50.295-66.776-50.295-66.776s7.824,2.296,19.303,0.832
					C104.59,259.159,108.803,257.969,112.699,256.61z"/>
				<path fill="#FFFFFF" stroke="#000000" stroke-miterlimit="10" d="M61.54,239.982c-4.591-0.463-9.267-1.095-14.206-2.064
					c-11.037-2.19-21.999-6.803-32.34-13.048L61.54,239.982z"/>
			</g>
		</g>
	</g>
	<g>
		<g>
			<g>
				<path fill="#FFFFFF" stroke="#000000" stroke-miterlimit="10" d="M193.786,144.995l13.458,18.502
					c18.071,5.086,49.747,16.249,77.359,37.732l-19.335-59.52c-41.175-23.589-79.065-27.19-79.065-27.19s4.613,6.729,6.782,18.113
					C193.723,136.497,193.87,140.867,193.786,144.995z"/>
				<path fill="#FFFFFF" stroke="#000000" stroke-miterlimit="10" d="M162.183,101.471c-1.874-4.202-3.917-8.467-6.371-12.858
					c-5.497-9.814-13.269-18.829-22.388-26.716L162.183,101.471z"/>
			</g>
		</g>
		<g>
			<g>
				<path fill="#FFFFFF" stroke="#000000" stroke-miterlimit="10" d="M193.786,144.995l13.458,18.502
					c-0.758,18.776,0.095,52.328,11.974,85.226l-50.632-36.773c-9.71-46.44-1.443-83.583-1.443-83.583s4.992,6.455,15.143,12.037
					C185.74,142.278,189.848,143.794,193.786,144.995z"/>
				<path fill="#FFFFFF" stroke="#000000" stroke-miterlimit="10" d="M162.183,101.471c-3.433-3.064-6.855-6.329-10.267-10.036
					c-7.646-8.246-13.795-18.429-18.492-29.539L162.183,101.471z"/>
			</g>
		</g>
	</g>
	<g>
		<g>
			<g>
				<path fill="#FFFFFF" stroke="#000000" stroke-miterlimit="10" d="M325.021,102.355v22.883
					c11.652,14.722,30.691,42.387,40.422,75.99l19.335-59.52c-19.44-43.281-47.979-68.481-47.979-68.481s-0.231,8.161-5.187,18.65
					C329.948,95.426,327.506,99.07,325.021,102.355z"/>
				<path fill="#FFFFFF" stroke="#000000" stroke-miterlimit="10" d="M325.021,48.564c0.958-4.497,1.801-9.151,2.4-14.143
					c1.327-11.173,0.338-23.031-2.4-34.783V48.564z"/>
			</g>
		</g>
		<g>
			<g>
				<path fill="#FFFFFF" stroke="#000000" stroke-miterlimit="10" d="M325.021,102.355v22.883
					c-11.647,14.722-30.687,42.387-40.417,75.99l-19.335-59.52c19.44-43.281,47.979-68.46,47.979-68.46s0.231,8.14,5.16,18.629
					C320.092,95.426,322.535,99.07,325.021,102.355z"/>
				<path fill="#FFFFFF" stroke="#000000" stroke-miterlimit="10" d="M325.021,48.564c-0.969-4.497-1.812-9.151-2.401-14.143
					c-1.337-11.173-0.337-23.031,2.401-34.783V48.564z"/>
			</g>
		</g>
	</g>
	<g>
		<g>
			<g>
				<path fill="#FFFFFF" stroke="#000000" stroke-miterlimit="10" d="M456.26,144.995l-13.458,18.502
					c0.758,18.776-0.084,52.328-11.963,85.226l50.611-36.773c9.709-46.44,1.432-83.583,1.432-83.583s-4.971,6.455-15.122,12.037
					C464.306,142.278,460.178,143.794,456.26,144.995z"/>
				<path fill="#FFFFFF" stroke="#000000" stroke-miterlimit="10" d="M487.874,101.471c3.411-3.064,6.823-6.329,10.256-10.036
					c7.625-8.246,13.796-18.429,18.492-29.539L487.874,101.471z"/>
			</g>
		</g>
		<g>
			<g>
				<path fill="#FFFFFF" stroke="#000000" stroke-miterlimit="10" d="M456.26,144.995l-13.458,18.502
					c-18.07,5.086-49.747,16.249-77.359,37.732l19.335-59.52c41.175-23.589,79.065-27.19,79.065-27.19s-4.613,6.729-6.782,18.113
					C456.323,136.497,456.156,140.867,456.26,144.995z"/>
				<path fill="#FFFFFF" stroke="#000000" stroke-miterlimit="10" d="M487.874,101.471c1.853-4.202,3.896-8.467,6.36-12.858
					c5.497-9.814,13.269-18.808,22.388-26.716L487.874,101.471z"/>
			</g>
		</g>
	</g>
	<g>
		<g>
			<g>
				<path fill="#FFFFFF" stroke="#000000" stroke-miterlimit="10" d="M537.368,256.61l-21.777,7.087
					c-10.404,15.627-30.855,42.271-59.794,61.9h62.595c35.131-31.866,50.273-66.776,50.273-66.776s-7.813,2.296-19.312,0.832
					C545.456,259.159,541.243,257.969,537.368,256.61z"/>
				<path fill="#FFFFFF" stroke="#000000" stroke-miterlimit="10" d="M588.506,239.982c4.57-0.463,9.267-1.095,14.195-2.064
					c11.036-2.19,22.009-6.803,32.329-13.048L588.506,239.982z"/>
			</g>
		</g>
		<g>
			<g>
				<path fill="#FFFFFF" stroke="#000000" stroke-miterlimit="10" d="M537.368,256.61l-21.777,7.087
					c-17.607-6.529-49.811-16.112-84.752-14.975l50.611-36.773c47.198,5.118,79.949,24.474,79.949,24.474
					s-7.688,2.749-16.133,10.678C542.423,249.797,539.706,253.241,537.368,256.61z"/>
				<path fill="#FFFFFF" stroke="#000000" stroke-miterlimit="10" d="M588.506,239.982c3.98-2.296,8.15-4.528,12.721-6.645
					c10.194-4.718,21.778-7.424,33.804-8.467L588.506,239.982z"/>
			</g>
		</g>
	</g>
	<g>
		<g>
			<g>
				<path fill="#FFFFFF" stroke="#000000" stroke-miterlimit="10" d="M537.368,394.595l-21.777-7.066
					c-17.607,6.519-49.811,16.092-84.752,14.943l50.611,36.795c47.198-5.119,79.949-24.484,79.949-24.484
					s-7.688-2.728-16.133-10.668C542.423,401.419,539.706,397.964,537.368,394.595z"/>
				<path fill="#FFFFFF" stroke="#000000" stroke-miterlimit="10" d="M588.506,411.234c3.98,2.274,8.15,4.527,12.721,6.635
					c10.194,4.717,21.778,7.434,33.804,8.467L588.506,411.234z"/>
			</g>
		</g>
		<g>
			<g>
				<path fill="#FFFFFF" stroke="#000000" stroke-miterlimit="10" d="M537.368,394.595l-21.777-7.066
					c-10.404-15.639-30.855-42.302-59.794-61.931h62.595c35.131,31.866,50.273,66.796,50.273,66.796s-7.813-2.295-19.312-0.842
					C545.456,392.046,541.243,393.248,537.368,394.595z"/>
				<path fill="#FFFFFF" stroke="#000000" stroke-miterlimit="10" d="M588.506,411.234c4.57,0.463,9.267,1.084,14.195,2.064
					c11.036,2.189,22.009,6.803,32.329,13.037L588.506,411.234z"/>
			</g>
		</g>
	</g>
	<g>
		<g>
			<g>
				<path fill="#FFFFFF" stroke="#000000" stroke-miterlimit="10" d="M456.26,506.232l-13.458-18.523
					c-18.07-5.076-49.747-16.25-77.359-37.722l19.335,59.521c41.175,23.578,79.065,27.189,79.065,27.189s-4.613-6.719-6.782-18.112
					C456.323,514.708,456.156,510.339,456.26,506.232z"/>
				<path fill="#FFFFFF" stroke="#000000" stroke-miterlimit="10" d="M487.874,549.734c1.853,4.213,3.896,8.467,6.36,12.869
					c5.497,9.814,13.269,18.818,22.388,26.727L487.874,549.734z"/>
			</g>
		</g>
		<g>
			<g>
				<path fill="#FFFFFF" stroke="#000000" stroke-miterlimit="10" d="M456.26,506.232l-13.458-18.523
					c0.758-18.766-0.084-52.328-11.963-85.236l50.611,36.795c9.709,46.44,1.432,83.572,1.432,83.572s-4.971-6.445-15.122-12.027
					C464.306,508.938,460.178,507.432,456.26,506.232z"/>
				<path fill="#FFFFFF" stroke="#000000" stroke-miterlimit="10" d="M487.874,549.734c3.411,3.076,6.845,6.34,10.256,10.025
					c7.625,8.256,13.796,18.45,18.492,29.57L487.874,549.734z"/>
			</g>
		</g>
	</g>
	<g>
		<g>
			<g>
				<path fill="#FFFFFF" stroke="#000000" stroke-miterlimit="10" d="M325.021,548.861v-22.884
					c-11.647-14.722-30.687-42.386-40.417-75.99l-19.335,59.521c19.44,43.281,47.979,68.471,47.979,68.471s0.231-8.15,5.16-18.64
					C320.092,555.779,322.535,552.135,325.021,548.861z"/>
				<path fill="#FFFFFF" stroke="#000000" stroke-miterlimit="10" d="M325.021,602.662c-0.969,4.486-1.812,9.131-2.401,14.133
					c-1.337,11.162-0.337,23.02,2.401,34.772V602.662z"/>
			</g>
		</g>
		<g>
			<g>
				<path fill="#FFFFFF" stroke="#000000" stroke-miterlimit="10" d="M325.021,548.861v-22.884
					c11.652-14.722,30.691-42.386,40.422-75.99l19.335,59.521c-19.44,43.281-47.979,68.471-47.979,68.471s-0.231-8.15-5.187-18.64
					C329.948,555.779,327.506,552.135,325.021,548.861z"/>
				<path fill="#FFFFFF" stroke="#000000" stroke-miterlimit="10" d="M325.021,602.662c0.958,4.486,1.801,9.131,2.4,14.133
					c1.327,11.162,0.338,23.02-2.4,34.772V602.662z"/>
			</g>
		</g>
	</g>
	<g>
		<g>
			<g>
				<path fill="#FFFFFF" stroke="#000000" stroke-miterlimit="10" d="M193.786,506.21l13.458-18.502
					c-0.758-18.766,0.084-52.338,11.974-85.236l-50.632,36.795c-9.71,46.44-1.443,83.572-1.443,83.572s4.992-6.445,15.143-12.027
					C185.74,508.917,189.848,507.432,193.786,506.21z"/>
				<path fill="#FFFFFF" stroke="#000000" stroke-miterlimit="10" d="M162.183,549.734c-3.433,3.076-6.855,6.34-10.267,10.025
					c-7.646,8.256-13.816,18.45-18.492,29.57L162.183,549.734z"/>
			</g>
		</g>
		<g>
			<g>
				<path fill="#FFFFFF" stroke="#000000" stroke-miterlimit="10" d="M193.786,506.232l13.458-18.523
					c18.071-5.076,49.747-16.25,77.359-37.722l-19.335,59.521c-41.175,23.578-79.065,27.189-79.065,27.189s4.613-6.719,6.782-18.112
					C193.723,514.708,193.87,510.339,193.786,506.232z"/>
				<path fill="#FFFFFF" stroke="#000000" stroke-miterlimit="10" d="M162.183,549.734c-1.874,4.213-3.917,8.467-6.371,12.869
					c-5.497,9.814-13.269,18.809-22.388,26.727L162.183,549.734z"/>
			</g>
		</g>
	</g>
</g>
</svg>
