<?xml version="1.0" encoding="utf-8"?>
<!-- Generator: Adobe Illustrator 16.0.0, SVG Export Plug-In . SVG Version: 6.00 Build 0)  -->
<!DOCTYPE svg PUBLIC "-//W3C//DTD SVG 1.1//EN" "http://www.w3.org/Graphics/SVG/1.1/DTD/svg11.dtd">
<svg version="1.1" id="Capa_1" xmlns="http://www.w3.org/2000/svg" xmlns:xlink="http://www.w3.org/1999/xlink" x="0px" y="0px"
	 width="650.471px" height="650.472px" viewBox="0 0 650.471 650.472" enable-background="new 0 0 650.471 650.472"
	 xml:space="preserve">
<g>
	<path fill="none" stroke="#000000" d="M24.265,251.19c0,0,7.751,8.65,21.232,17.3c13.48,8.65,32.69,17.3,55.607,17.3
		c17.75,0,33.926-5.954,45.666-16.176c11.74-10.223,19.042-24.714,19.042-41.79c0-19.547-8.65-34.151-22.187-43.869
		c-13.537-9.718-31.96-14.548-51.506-14.548H81.109H70.1l-5.167-11.908l-5.167-11.908l44.486-51.001l44.486-51.001v-0.449V42.69
		l-67.179,0.674l-67.179,0.674V24.715V5.392h94.814h94.814v14.155v14.155l-43.138,49.654l-43.138,49.654
		c20.895,2.247,44.149,10.111,62.18,25.108c18.031,14.998,30.837,37.128,30.837,67.909c0,27.186-10.672,52.687-29.489,71.392
		c-18.817,18.704-45.778,30.612-78.356,30.612c-32.354,0-58.08-10.785-75.717-21.569C9.549,295.677,0,284.892,0,284.892
		l12.132-16.851L24.265,251.19z"/>
	<path fill="none" stroke="#000000" d="M265.116,163.565c0-26.187,2.259-50.818,7.479-72.628
		c6.726-28.106,18.369-51.529,36.43-67.562C325.769,8.511,348.029,0,377.005,0c28.101,0,49.903,7.92,66.502,21.824
		c19.835,16.616,32.233,41.777,39.06,72.177c4.726,21.043,6.778,44.598,6.778,69.565c0,27.458-2.459,53.223-8.188,75.846
		c-5.729,22.623-14.725,42.103-27.799,56.991c-17.499,19.928-42.304,31.63-76.354,31.63c-32.947,0-57.216-11.074-74.562-30.021
		c-14.597-15.944-24.292-37.465-30.136-62.655C267.292,213.729,265.116,189.396,265.116,163.565z M443.96,163.565
		c0-68.751-14.83-122.674-66.955-122.674c-51.676,0-66.504,53.922-66.504,122.674c0,69.201,14.828,123.573,66.504,123.573
		C429.13,287.139,443.96,232.767,443.96,163.565z"/>
</g>
</svg>
