<?xml version="1.0" encoding="utf-8"?>
<!-- Generator: Adobe Illustrator 16.0.0, SVG Export Plug-In . SVG Version: 6.00 Build 0)  -->
<!DOCTYPE svg PUBLIC "-//W3C//DTD SVG 1.1//EN" "http://www.w3.org/Graphics/SVG/1.1/DTD/svg11.dtd">
<svg version="1.1" id="Capa_1" xmlns="http://www.w3.org/2000/svg" xmlns:xlink="http://www.w3.org/1999/xlink" x="0px" y="0px"
	 width="650.471px" height="650.472px" viewBox="0 0 650.471 650.472" enable-background="new 0 0 650.471 650.472"
	 xml:space="preserve">
<g>
	<g>
		<g>
			<path fill="#FFFFFF" stroke="#000000" stroke-miterlimit="10" d="M478.612,438.101c-25.108,11.375-61.029-17.428-61.029-17.428
				c-0.855,3.568-1.878,7.096-2.964,10.54l67.854,117.593C504.701,492.712,478.612,438.101,478.612,438.101z"/>
			<path fill="#FFFFFF" stroke="#000000" stroke-miterlimit="10" d="M410.236,350.261c0,0,22.416,43.758,56.438,51.209
				c25.047,5.531,47.358-14.934,47.358-14.934s-17.365-4.027-48.632-51.835c-13.816-21.081-54.58-62.042-134.201-47.942
				l67.912,117.613C404.37,388.697,408.608,370.623,410.236,350.261z"/>
		</g>
	</g>
	<g>
		<g>
			<path fill="#FFFFFF" stroke="#000000" stroke-miterlimit="10" d="M542.439,223.543c-2.693,27.462-45.585,44.149-45.585,44.149
				c2.651,2.531,5.197,5.16,7.64,7.842h135.75C602.779,228.255,542.439,223.543,542.439,223.543z"/>
			<path fill="#FFFFFF" stroke="#000000" stroke-miterlimit="10" d="M432.193,238.853c0,0,49.091,2.468,72.551-23.288
				c17.324-18.92,10.749-48.459,10.749-48.459s-12.168,13.014-69.19,16.191c-25.172,1.409-81.046,16.239-108.617,92.238h135.793
				C462.562,263.116,448.994,250.441,432.193,238.853z"/>
		</g>
	</g>
	<g>
		<g>
			<path fill="#FFFFFF" stroke="#000000" stroke-miterlimit="10" d="M388.55,60.992c22.416,16.061,15.444,61.551,15.444,61.551
				c3.507-1.022,7.076-1.91,10.624-2.687L482.493,2.28C422.78,11.087,388.55,60.992,388.55,60.992z"/>
			<path fill="#FFFFFF" stroke="#000000" stroke-miterlimit="10" d="M346.681,164.121c0,0,26.694-41.274,16.112-74.481
				c-7.743-24.441-36.572-33.536-36.572-33.536s5.165,17.052-20.601,68.042c-11.354,22.495-26.445,78.28,25.578,140.17
				l67.912-117.608C382.872,149.969,365.131,155.359,346.681,164.121z"/>
		</g>
	</g>
	<g>
		<g>
			<path fill="#FFFFFF" stroke="#000000" stroke-miterlimit="10" d="M170.829,112.984c25.13-11.386,61.029,17.423,61.029,17.423
				c0.856-3.574,1.889-7.097,2.985-10.551L166.968,2.28C144.719,58.373,170.829,112.984,170.829,112.984z"/>
			<path fill="#FFFFFF" stroke="#000000" stroke-miterlimit="10" d="M239.216,200.818c0,0-22.406-43.758-56.448-51.214
				c-25.046-5.521-47.348,14.934-47.348,14.934s17.355,4.033,48.632,51.83c13.807,21.086,54.569,62.063,134.195,47.948
				L250.33,146.708C245.05,162.383,240.855,180.453,239.216,200.818z"/>
		</g>
	</g>
	<g>
		<g>
			<path fill="#FFFFFF" stroke="#000000" stroke-miterlimit="10" d="M107.003,327.542c2.692-27.467,45.595-44.145,45.595-44.145
				c-2.661-2.546-5.187-5.176-7.65-7.863H9.198C46.662,322.826,107.003,327.542,107.003,327.542z"/>
			<path fill="#FFFFFF" stroke="#000000" stroke-miterlimit="10" d="M217.248,312.222c0,0-49.091-2.463-72.561,23.293
				c-17.313,18.932-10.759,48.443-10.759,48.443s12.189-13.002,69.232-16.175c25.151-1.419,81.004-16.239,108.597-92.249H175.964
				C186.89,287.969,200.426,300.638,217.248,312.222z"/>
		</g>
	</g>
	<g>
		<g>
			<path fill="#FFFFFF" stroke="#000000" stroke-miterlimit="10" d="M260.892,490.093c-22.417-16.072-15.435-61.562-15.435-61.562
				c-3.538,1.033-7.076,1.91-10.613,2.683l-67.896,117.593C226.651,539.998,260.892,490.093,260.892,490.093z"/>
			<path fill="#FFFFFF" stroke="#000000" stroke-miterlimit="10" d="M302.75,386.964c0,0-26.674,41.285-16.113,74.482
				c7.733,24.43,36.589,33.53,36.589,33.53s-5.166-17.052,20.596-68.032c11.354-22.489,26.444-78.291-25.574-140.186L250.33,404.373
				C266.569,401.116,284.31,395.72,302.75,386.964z"/>
		</g>
	</g>
</g>
</svg>
