<?xml version="1.0" encoding="utf-8"?>
<!-- Generator: Adobe Illustrator 16.0.0, SVG Export Plug-In . SVG Version: 6.00 Build 0)  -->
<!DOCTYPE svg PUBLIC "-//W3C//DTD SVG 1.1//EN" "http://www.w3.org/Graphics/SVG/1.1/DTD/svg11.dtd">
<svg version="1.1" id="Layer_1" xmlns="http://www.w3.org/2000/svg" xmlns:xlink="http://www.w3.org/1999/xlink" x="0px" y="0px"
	 width="800px" height="600px" viewBox="0 0 800 600" enable-background="new 0 0 800 600" xml:space="preserve">
<polygon fill="#FFFFFF" stroke="#000000" stroke-miterlimit="10" points="346.558,251.534 300.32,305.352 348.074,353.105 
	348.074,325.817 307.647,305.856 "/>
<polygon fill="#FFFFFF" stroke="#000000" stroke-miterlimit="10" points="259.009,353.105 305.248,299.288 257.493,251.534 
	257.493,278.822 297.92,298.783 "/>
<polygon fill="#FFFFFF" stroke="#000000" stroke-miterlimit="10" points="296.42,216.505 303.3,307.308 389.974,307.308 
	365.209,282.543 310.408,301.116 "/>
<polygon fill="#FFFFFF" stroke="#000000" stroke-miterlimit="10" points="309.147,388.135 302.269,297.332 215.594,297.332 
	240.358,322.097 295.159,303.523 "/>
<polygon fill="#FFFFFF" stroke="#000000" stroke-miterlimit="10" points="268.931,244.446 304.853,305.633 365.509,275.939 
	339.695,267.093 307.707,298.866 "/>
<polygon fill="#FFFFFF" stroke="#000000" stroke-miterlimit="10" points="336.636,360.194 300.714,299.007 240.058,328.699 
	265.873,337.548 297.86,305.774 "/>
<polygon fill="#FFFFFF" stroke="#000000" stroke-miterlimit="10" points="219.541,280.519 307.669,303.449 335.768,221.456 
	304.312,236.854 304.116,294.717 "/>
<polygon fill="#FFFFFF" stroke="#000000" stroke-miterlimit="10" points="386.025,324.119 297.898,301.19 269.8,383.185 
	301.255,367.786 301.45,309.923 "/>
<polygon fill="#FFFFFF" stroke="#000000" stroke-miterlimit="10" points="454.921,125.811 294.22,312.856 460.192,478.829 
	460.192,383.986 319.687,314.612 "/>
<polygon fill="#FFFFFF" stroke="#000000" stroke-miterlimit="10" points="150.644,478.829 311.347,291.783 145.375,125.811 
	145.375,220.651 285.88,290.026 "/>
<polygon fill="#FFFFFF" stroke="#000000" stroke-miterlimit="10" points="280.668,4.068 304.579,319.655 605.816,319.655 
	519.748,233.585 329.282,298.137 "/>
<polygon fill="#FFFFFF" stroke="#000000" stroke-miterlimit="10" points="324.9,600.573 300.994,284.985 -0.249,284.985 
	85.82,371.055 276.285,306.502 "/>
<polygon fill="#FFFFFF" stroke="#000000" stroke-miterlimit="10" points="185.127,101.176 309.976,313.835 520.788,210.631 
	431.07,179.886 319.895,290.314 "/>
<polygon fill="#FFFFFF" stroke="#000000" stroke-miterlimit="10" points="420.44,503.465 295.591,290.805 84.776,394.003 
	174.497,424.756 285.672,314.325 "/>
<polygon fill="#FFFFFF" stroke="#000000" stroke-miterlimit="10" points="13.47,226.551 319.764,306.244 417.42,21.271 
	308.096,74.788 307.415,275.896 "/>
<polygon fill="#FFFFFF" stroke="#000000" stroke-miterlimit="10" points="592.096,378.084 285.804,298.395 188.146,583.368 
	297.472,529.853 298.148,328.744 "/>
</svg>
