<?xml version="1.0" encoding="utf-8"?>
<!-- Generator: Adobe Illustrator 16.0.0, SVG Export Plug-In . SVG Version: 6.00 Build 0)  -->
<!DOCTYPE svg PUBLIC "-//W3C//DTD SVG 1.1//EN" "http://www.w3.org/Graphics/SVG/1.1/DTD/svg11.dtd">
<svg version="1.1" id="Layer_1" xmlns="http://www.w3.org/2000/svg" xmlns:xlink="http://www.w3.org/1999/xlink" x="0px" y="0px"
	 width="800px" height="600px" viewBox="0 0 800 600" enable-background="new 0 0 800 600" xml:space="preserve">
<path fill="none" stroke="#000000" stroke-miterlimit="10" d="M148,79c0,8.719-1.561,17.072-4.417,24.798
	c-1.1,2.975-2.392,5.856-3.862,8.63c-2.347,4.429-5.146,8.582-8.334,12.398c-4.273,5.113-9.248,9.619-14.775,13.372
	s-11.608,6.751-18.096,8.849c-6.935,2.243-14.334,3.454-22.016,3.454c-11.902,0-23.124-2.908-32.996-8.053
	c-3.291-1.715-6.432-3.678-9.397-5.865c-3.656-2.696-7.047-5.733-10.125-9.062c-2.269-2.454-4.367-5.068-6.277-7.822
	c-1.46-2.105-2.809-4.292-4.041-6.554c-1.746-3.206-3.254-6.561-4.5-10.04c-1.319-3.683-2.344-7.506-3.047-11.44
	C5.383,87.553,5,83.321,5,79c0-5.858,0.705-11.552,2.033-17.001c1.014-4.155,2.391-8.167,4.094-12.001
	c1.822-4.102,4.019-7.999,6.547-11.65c1.918-2.77,4.026-5.396,6.306-7.863c2.379-2.575,4.946-4.974,7.678-7.176
	c3.21-2.588,6.649-4.904,10.282-6.914c3.076-1.702,6.291-3.184,9.623-4.424C59.327,9.08,67.729,7.5,76.5,7.5
	c3.92,0,7.766,0.315,11.515,0.922c4.319,0.699,8.509,1.786,12.533,3.223c2.939,1.05,5.79,2.286,8.537,3.695
	c4.277,2.193,8.304,4.805,12.027,7.781c3.225,2.578,6.221,5.428,8.954,8.517c2.782,3.144,5.292,6.535,7.491,10.135
	c2.242,3.669,4.162,7.557,5.722,11.623C146.329,61.345,148,69.977,148,79z"/>
</svg>
